<svg width="650" height="650" viewBox="0 0 650 650" fill="none" xmlns="http://www.w3.org/2000/svg">
<path d="M579.428 338.859V386.088C579.428 393.934 576.966 400.14 572.041 404.703C567.149 409.267 560.451 411.549 551.948 411.549C543.576 411.549 536.927 409.333 532.003 404.9C527.078 400.468 524.566 394.378 524.468 386.629V338.859H539.242V386.186C539.242 390.881 540.358 394.312 542.591 396.479C544.856 398.613 547.975 399.68 551.948 399.68C560.254 399.68 564.473 395.313 564.605 386.58V338.859H579.428Z" fill="#27AE60"/>
<path d="M614 381.803L606.317 390.077V410.564H591.543V338.859H606.317V371.363L612.818 362.449L631.089 338.859H649.261L623.8 370.722L650 410.564H632.419L614 381.803Z" fill="#27AE60"/>
<path d="M360.087 411.478V246.573H412.03L424.637 276.327H391.858V315.157H440.775L452.373 343.902H391.858V381.724H468.006L480.614 411.478H360.087Z" fill="#205FCE"/>
<path d="M452.373 246.573H417.073L485.657 411.478H518.436L587.02 246.573H551.215L501.29 373.151L452.373 246.573Z" fill="#205FCE"/>
<path fill-rule="evenodd" clip-rule="evenodd" d="M251.159 353.988C249.982 360.04 243.998 375.975 235.526 387.272C252.733 408.25 278.669 412.15 289.486 411.478C315.037 410.637 358.07 396.349 358.07 342.389C358.07 286.028 308.313 270.443 286.46 271.284C231.996 274.914 218.38 323.73 218.38 343.902C218.38 364.074 202.243 379.707 179.045 381.724C155.847 383.742 138.701 360.04 139.71 339.363C140.718 318.687 159.882 301.541 179.045 302.046C194.375 302.449 206.613 312.3 210.816 317.174C217.271 299.827 223.927 291.455 226.449 289.438C220.901 283.723 203.554 272.09 178.541 271.284C153.528 270.477 131.809 288.43 124.077 297.507C108.343 278.545 87.5992 272.796 79.1943 272.292H60.5354C58.1147 272.292 57.5096 270.947 57.5096 270.275V266.241C57.5096 263.82 59.863 263.215 61.0397 263.215H310.666C310.666 269.266 316.718 270.779 319.743 270.779H331.847V264.728H343.95C346.774 262.71 345.126 260.189 343.95 259.18H331.847V249.599H343.95C347.177 247.178 345.294 244.556 343.95 243.547H331.847V238H319.743C314.095 238 311.339 243.043 310.666 245.564H43.8936C37.0351 245.564 35.3205 250.944 35.3205 253.633V280.361C23.2174 285.068 -0.787033 303.962 0.0198406 341.885C1.02843 389.289 38.3463 409.965 69.1084 411.478C93.718 412.688 110.293 399.207 115.504 392.315C106.628 381.825 101.72 369.789 100.375 365.083C99.198 370.63 90.9948 381.724 67.5955 381.724C38.3463 381.724 30.7819 353.988 29.7733 341.885C28.9664 332.202 33.1353 324.739 35.3205 322.217V341.885C35.3205 351.164 41.0359 352.139 43.8936 351.467H109.956V355.501C114.159 373.992 134.062 411.074 180.053 411.478C237.543 411.982 249.646 351.971 249.646 349.954V332.808C252.504 322.386 264.473 301.642 289.486 302.046C320.752 302.55 328.821 333.312 328.821 342.389C328.821 351.467 320.248 382.229 289.486 381.724C264.876 381.321 253.681 363.065 251.159 353.988ZM57.4897 304.063V324.235H104.894C101.868 317.343 90.5716 303.357 69.5928 302.55C67.0714 302.55 61.1207 302.852 57.4897 304.063Z" fill="#27AE60"/>
<path d="M310.646 263.215V245.564C310.646 240.32 316.698 238.336 319.724 238H331.827V243.547H343.93C346.35 245.564 344.938 248.422 343.93 249.599H331.827V259.18H343.93C345.947 261.601 344.77 263.887 343.93 264.728H331.827V270.779H319.724C313.269 270.779 310.982 265.736 310.646 263.215Z" fill="#3DD57D"/>
</svg>
