<svg width="544" height="415" viewBox="0 0 544 415" fill="none" xmlns="http://www.w3.org/2000/svg">
<path opacity="0.1" d="M310.594 65.6296C276.323 64.4386 243.684 53.3803 212.511 41.2792C181.339 29.1781 150.473 15.7748 117.023 9.35896C95.5091 5.23527 70.9077 4.65298 53.5713 16.1824C36.8915 27.2989 31.501 46.4351 28.5993 64.2109C26.423 77.5825 25.1415 91.6581 31.1145 104.177C35.2606 112.869 42.6262 120.175 47.7202 128.496C65.4378 157.462 52.9147 193.205 33.7197 221.467C24.7179 234.738 14.2652 247.405 7.31266 261.518C0.360091 275.631 -2.85408 291.824 3.22478 306.233C9.25599 320.526 23.6218 331.24 39.1843 338.783C70.7859 354.134 108.022 358.491 144.352 360.974C224.743 366.474 305.569 364.092 386.172 361.71C416.005 360.826 445.965 359.931 475.316 355.32C491.609 352.763 508.438 348.698 520.267 338.91C535.284 326.454 539.007 305.365 528.946 289.743C512.065 263.546 465.404 257.04 453.59 228.926C447.093 213.447 453.765 196.211 463.201 181.855C483.45 151.068 517.386 124.055 519.176 88.8631C520.405 64.6926 504.09 40.4852 478.864 29.0458C452.42 17.0611 415.756 18.5698 396.259 38.4101C376.148 58.8168 340.84 66.6883 310.594 65.6296Z" fill="#27AE60"/>
<path opacity="0.1" d="M307.009 399.22C415.5 399.22 503.45 392.683 503.45 384.62C503.45 376.557 415.5 370.021 307.009 370.021C198.518 370.021 110.569 376.557 110.569 384.62C110.569 392.683 198.518 399.22 307.009 399.22Z" fill="#27AE60"/>
<path d="M383.524 42.2109H165.495C162.629 42.2109 160.306 44.5336 160.306 47.3986V376.542C160.306 379.407 162.629 381.73 165.495 381.73H383.524C386.39 381.73 388.714 379.407 388.714 376.542V47.3986C388.714 44.5336 386.39 42.2109 383.524 42.2109Z" fill="#27AE60"/>
<path opacity="0.1" d="M355.169 71.3944H196.679C188.136 71.3944 181.212 78.3172 181.212 86.8569V122.679C181.212 131.218 188.136 138.141 196.679 138.141H355.169C363.711 138.141 370.636 131.218 370.636 122.679V86.8569C370.636 78.3172 363.711 71.3944 355.169 71.3944Z" fill="black"/>
<path d="M363.583 72.6967H187.831C184.848 72.6967 182.429 75.1141 182.429 78.0961V131.852C182.429 134.834 184.848 137.252 187.831 137.252H363.583C366.566 137.252 368.984 134.834 368.984 131.852V78.0961C368.984 75.1141 366.566 72.6967 363.583 72.6967Z" fill="#E6E8EC"/>
<path opacity="0.1" d="M219.766 165.943H193.523C190.367 165.943 187.809 168.5 187.809 171.655V202.071C187.809 205.226 190.367 207.783 193.523 207.783H219.766C222.921 207.783 225.479 205.226 225.479 202.071V171.655C225.479 168.5 222.921 165.943 219.766 165.943Z" fill="black"/>
<path opacity="0.1" d="M265.807 165.943H239.564C236.409 165.943 233.851 168.5 233.851 171.655V202.071C233.851 205.226 236.409 207.783 239.564 207.783H265.807C268.963 207.783 271.521 205.226 271.521 202.071V171.655C271.521 168.5 268.963 165.943 265.807 165.943Z" fill="black"/>
<path opacity="0.1" d="M311.849 165.943H285.606C282.45 165.943 279.892 168.5 279.892 171.655V202.071C279.892 205.226 282.45 207.783 285.606 207.783H311.849C315.004 207.783 317.562 205.226 317.562 202.071V171.655C317.562 168.5 315.004 165.943 311.849 165.943Z" fill="black"/>
<path opacity="0.1" d="M348.333 166.832H341.205C332.771 166.832 325.934 173.667 325.934 182.099V193.406C325.934 201.837 332.771 208.673 341.205 208.673H348.333C356.767 208.673 363.604 201.837 363.604 193.406V182.099C363.604 173.667 356.767 166.832 348.333 166.832Z" fill="black"/>
<path d="M357.89 165.943H331.647C328.492 165.943 325.934 168.5 325.934 171.655V202.071C325.934 205.226 328.492 207.783 331.647 207.783H357.89C361.046 207.783 363.604 205.226 363.604 202.071V171.655C363.604 168.5 361.046 165.943 357.89 165.943Z" fill="#205FCE"/>
<path opacity="0.1" d="M219.766 211.97H193.523C190.367 211.97 187.809 214.528 187.809 217.682V248.099C187.809 251.254 190.367 253.811 193.523 253.811H219.766C222.921 253.811 225.479 251.254 225.479 248.099V217.682C225.479 214.528 222.921 211.97 219.766 211.97Z" fill="black"/>
<path opacity="0.1" d="M265.807 211.97H239.564C236.409 211.97 233.851 214.528 233.851 217.682V248.099C233.851 251.254 236.409 253.811 239.564 253.811H265.807C268.963 253.811 271.521 251.254 271.521 248.099V217.682C271.521 214.528 268.963 211.97 265.807 211.97Z" fill="black"/>
<path opacity="0.1" d="M311.849 211.97H285.606C282.45 211.97 279.892 214.528 279.892 217.682V248.099C279.892 251.254 282.45 253.811 285.606 253.811H311.849C315.004 253.811 317.562 251.254 317.562 248.099V217.682C317.562 214.528 315.004 211.97 311.849 211.97Z" fill="black"/>
<path opacity="0.1" d="M219.766 262.778H193.523C190.367 262.778 187.809 265.335 187.809 268.49V298.907C187.809 302.061 190.367 304.619 193.523 304.619H219.766C222.921 304.619 225.479 302.061 225.479 298.907V268.49C225.479 265.335 222.921 262.778 219.766 262.778Z" fill="black"/>
<path opacity="0.1" d="M265.807 262.778H239.564C236.409 262.778 233.851 265.335 233.851 268.49V298.907C233.851 302.061 236.409 304.619 239.564 304.619H265.807C268.963 304.619 271.521 302.061 271.521 298.907V268.49C271.521 265.335 268.963 262.778 265.807 262.778Z" fill="black"/>
<path opacity="0.1" d="M311.849 262.778H285.606C282.45 262.778 279.892 265.335 279.892 268.49V298.907C279.892 302.061 282.45 304.619 285.606 304.619H311.849C315.004 304.619 317.562 302.061 317.562 298.907V268.49C317.562 265.335 315.004 262.778 311.849 262.778Z" fill="black"/>
<path opacity="0.1" d="M311.849 313.586H285.606C282.45 313.586 279.892 316.143 279.892 319.297V349.714C279.892 352.869 282.45 355.426 285.606 355.426H311.849C315.004 355.426 317.562 352.869 317.562 349.714V319.297C317.562 316.143 315.004 313.586 311.849 313.586Z" fill="black"/>
<path opacity="0.1" d="M348.333 212.86H341.205C332.771 212.86 325.934 219.695 325.934 228.126V239.433C325.934 247.865 332.771 254.7 341.205 254.7H348.333C356.767 254.7 363.604 247.865 363.604 239.433V228.126C363.604 219.695 356.767 212.86 348.333 212.86Z" fill="black"/>
<path d="M357.62 211.97H331.918C328.613 211.97 325.934 214.649 325.934 217.952V247.829C325.934 251.133 328.613 253.811 331.918 253.811H357.62C360.925 253.811 363.604 251.133 363.604 247.829V217.952C363.604 214.649 360.925 211.97 357.62 211.97Z" fill="#205FCE"/>
<path opacity="0.2" d="M357.62 211.97H331.918C328.613 211.97 325.934 214.649 325.934 217.952V247.829C325.934 251.133 328.613 253.811 331.918 253.811H357.62C360.925 253.811 363.604 251.133 363.604 247.829V217.952C363.604 214.649 360.925 211.97 357.62 211.97Z" fill="black"/>
<path opacity="0.1" d="M266.204 313.586H193.126C190.19 313.586 187.809 315.965 187.809 318.9V350.111C187.809 353.047 190.19 355.426 193.126 355.426H266.204C269.141 355.426 271.521 353.047 271.521 350.111V318.9C271.521 315.965 269.141 313.586 266.204 313.586Z" fill="black"/>
<path opacity="0.1" d="M357.424 262.778H328.518C325.108 262.778 322.344 265.542 322.344 268.951V349.259C322.344 352.668 325.108 355.432 328.518 355.432H357.424C360.834 355.432 363.599 352.668 363.599 349.259V268.951C363.599 265.542 360.834 262.778 357.424 262.778Z" fill="black"/>
<path d="M360.607 125.976H344.118V127.76H360.607V125.976Z" fill="#27AE60"/>
<path d="M336.466 125.976H319.977V127.76H336.466V125.976Z" fill="#27AE60"/>
<path d="M312.32 125.976H295.831V127.76H312.32V125.976Z" fill="#27AE60"/>
<path d="M288.179 125.976H271.69V127.76H288.179V125.976Z" fill="#27AE60"/>
<path d="M465.907 251.201C467.606 245.484 465.907 239.767 465.907 239.767V234.373C465.907 234.373 467.85 223.828 459.177 217.063L453.426 211.992C453.426 211.992 450.201 209.223 449.264 209.048C449.089 209.011 448.912 208.984 448.734 208.969L448.565 208.868C448.071 208.023 447.649 207.138 447.305 206.222C447.677 206.27 448.055 206.232 448.411 206.111C448.766 205.99 449.089 205.788 449.354 205.523C449.562 205.284 449.725 205.01 449.836 204.713C450.169 203.967 450.228 203.061 450.508 202.267C450.755 201.623 451.113 201.028 451.567 200.51C451.509 200.605 451.446 200.695 451.393 200.796C452.208 199.779 453.272 198.911 454.04 197.842C454.193 197.63 454.332 197.409 454.459 197.18C454.427 197.228 454.384 197.27 454.347 197.318C455.406 195.619 455.729 193.559 456.037 191.574C456.185 190.899 456.195 190.2 456.068 189.52C455.919 189.069 455.728 188.633 455.496 188.218C454.247 185.64 454.268 182.395 452.272 180.336C450.768 178.796 448.491 178.325 446.346 178.06C444.202 177.795 441.946 177.642 440.103 176.519C439.589 176.13 439.02 175.817 438.414 175.593C438.11 175.487 437.777 175.49 437.475 175.602C437.172 175.714 436.919 175.928 436.757 176.207C436.719 176.372 436.642 176.526 436.534 176.657C436.438 176.711 436.331 176.743 436.221 176.75C436.111 176.756 436.001 176.737 435.899 176.694L433.045 175.932L433.077 176.075H433.002L433.108 176.525C433.164 176.515 433.222 176.525 433.271 176.553C433.32 176.581 433.358 176.625 433.378 176.678L432.918 177.388C432.035 177.371 431.162 177.192 430.344 176.858C430.339 176.904 430.339 176.95 430.344 176.996H430.302C430.249 177.8 431.165 178.325 431.446 179.082C431.558 179.413 431.558 179.772 431.446 180.103C431.331 180.41 431.15 180.689 430.916 180.918C429.905 181.919 428.607 181.723 427.443 182.353C427.342 182.396 427.252 182.46 427.179 182.542C427.106 182.623 427.051 182.719 427.019 182.824C426.973 182.902 426.96 182.995 426.982 183.083C427.028 183.205 427.111 183.309 427.22 183.38C427.559 183.654 427.931 183.885 428.327 184.068C428.21 184.174 428.099 184.28 427.993 184.391C426.515 185.893 425.432 187.738 424.84 189.761C424.249 191.783 424.168 193.921 424.605 195.983C425.042 198.044 425.983 199.966 427.344 201.575C428.705 203.184 430.443 204.432 432.404 205.205C432.446 205.428 432.478 205.655 432.51 205.893C432.51 205.92 432.51 205.936 432.51 205.962L432.542 206.269L428.698 207.905C428.118 207.901 427.551 207.731 427.064 207.418C426.576 207.104 426.188 206.658 425.944 206.132C425.049 204.284 421.888 206.132 421.888 206.132C421.888 206.132 412.245 205.412 408.65 207.19C408.65 207.19 402.894 204.776 402.084 204.612C401.274 204.448 400.061 203.808 399.495 203.972C398.928 204.136 398.197 202.913 397.79 203.003C397.382 203.093 397.223 202.199 395.926 201.876C394.628 201.553 394.141 201.96 392.685 200.51C391.229 199.059 379.389 193.342 379.389 193.342L374.073 188.97L368.401 184.46L368.301 184.645C368.264 184.513 368.227 184.375 368.19 184.227C367.625 181.98 366.918 179.772 366.071 177.615C365.706 176.742 365.542 175.641 365.05 176.223C364.748 176.572 364.234 175.805 363.461 175.286C363.297 175.173 363.11 175.098 362.913 175.066C362.717 175.034 362.515 175.046 362.324 175.102C362.133 175.158 361.957 175.256 361.808 175.388C361.659 175.521 361.542 175.685 361.465 175.868C357.049 182.792 355.465 183.279 358.023 185.826C360.305 188.086 361.819 190.06 363.678 190.685L363.9 190.754C363.861 190.764 363.819 190.764 363.779 190.754L374.56 203.638C374.56 203.638 382.338 210.404 387.692 212.574C393.045 214.744 392.632 215.395 392.632 215.395C392.632 215.395 408.846 223.606 411.356 223.447C413.866 223.288 413.384 240.275 412.33 243.033C411.276 245.791 409.577 265.578 409.577 265.578C409.577 265.578 407.951 269.766 409.656 272.661C409.656 272.661 410.032 278.209 409.693 279.543C408.216 281.819 406.108 285.683 405.764 289.659C405.764 289.871 405.722 290.067 405.701 290.273C405.593 290.398 405.464 290.504 405.319 290.585L405.679 290.479C405.526 292.136 405.171 293.768 404.62 295.339C403.763 297.545 403.309 299.886 403.281 302.252V315.042L402.222 322.982C402.222 322.982 400.924 328.99 402.222 330.393C402.769 331.092 403.023 331.977 402.931 332.86C402.877 333.885 403.168 334.899 403.757 335.739C403.983 335.985 404.148 336.28 404.239 336.601C404.331 336.921 404.348 337.259 404.287 337.587C403.858 338.979 404.922 353.796 404.922 353.796C404.922 353.796 404.61 357.877 404.181 358.094C403.752 358.311 404.922 362.816 404.922 362.816C404.922 362.816 400.543 366.469 401.66 368.401L402.778 370.116L402.481 370.407L402.301 370.592C401.963 370.398 401.569 370.323 401.184 370.381C399.808 371.788 398.335 373.099 396.778 374.303C394.803 375.727 389.429 377.792 389.429 377.792L385.192 378.136H385.113C385.113 378.136 383.085 377.945 384.223 381.084C385.362 384.223 395.539 383.26 395.539 383.26L401.48 382.323C401.48 382.323 412.071 382.376 415.105 381.704C416.37 381.423 416.693 380.745 416.587 380.063L416.556 380.031C416.41 379.38 416.112 378.772 415.687 378.257C415.665 378.224 415.641 378.192 415.613 378.162L415.804 375.992C420.299 373.403 414.533 368.311 414.533 368.311C414.533 368.311 416.508 364.018 417.519 362.626C418.531 361.233 418.531 340.721 418.531 340.721C418.531 340.721 419.06 333.31 417.668 331.595C417.644 331.036 417.772 330.482 418.039 329.99C418.305 329.499 418.701 329.089 419.182 328.805C420.183 328.122 423.206 318.715 425.579 310.907L427.072 320.108C427.072 320.108 426.749 324.512 427.718 325.798C427.9 326.041 428.03 326.318 428.099 326.613C428.168 326.909 428.176 327.215 428.12 327.513C427.891 328.748 427.965 330.02 428.337 331.219C428.451 331.733 428.728 332.197 429.126 332.542C429.99 332.971 430.043 334.501 430.366 334.824C430.689 335.147 432.69 334.368 432.796 335.549C432.856 336.586 432.856 337.625 432.796 338.662L433.447 357.771C433.447 357.771 432.388 359.359 432.15 363.594C432.06 365.399 431.721 366.426 431.372 367.014C431.178 367.329 431.089 367.698 431.117 368.067C431.146 368.436 431.29 368.786 431.53 369.068L431.716 369.285L430.916 369.899C430.595 370.148 430.37 370.501 430.279 370.898C430.188 371.294 430.238 371.71 430.418 372.075C430.161 372.299 429.976 372.595 429.888 372.925C429.8 373.256 429.813 373.605 429.926 373.927C429.959 374.033 430.005 374.135 430.064 374.229C429.456 374.324 428.893 374.603 428.449 375.028C427.65 376.125 426.687 377.093 425.595 377.897C424.009 379.112 422.49 380.413 421.046 381.794C420.365 382.72 419.452 383.45 418.398 383.911C418.14 384.016 417.872 384.095 417.599 384.149C415.481 384.583 416.143 386.796 417.869 387.161C419.595 387.526 425.324 389.279 429.783 388.257C429.783 388.257 431.107 388.786 433.05 387.802C434.993 386.817 439.33 385.61 439.33 385.61C439.33 385.61 441.761 385.61 442.089 384.647C442.174 384.34 442.221 384.023 442.227 383.704L442.296 383.636L442.232 383.577C442.238 382.856 442.183 382.135 442.068 381.423C442.004 381.052 441.935 380.724 441.872 380.46C441.665 379.655 441.279 378.612 441.115 378.173C441.142 378.138 441.167 378.101 441.189 378.062C442.116 376.473 440.575 372.704 440.575 372.704C441.081 371.902 441.695 371.173 442.401 370.539C443.265 369.894 445.536 353.145 445.536 353.145C445.536 353.145 445.425 348.852 446.595 346.919C447.765 344.987 444.975 333.289 444.975 333.289C444.975 333.289 443.783 330.605 444.218 329.636C444.652 328.667 443.783 325.126 443.783 325.126V320.891C443.781 320.387 443.697 319.886 443.535 319.409C443.201 318.414 442.709 316.503 443.243 315.132C444.001 313.199 445.727 301.284 445.727 301.284C445.727 301.284 444.377 296.027 446.357 291.84C446.512 291.505 446.688 291.182 446.886 290.871C448.353 288.568 447.914 284.477 447.188 281.179C447.082 280.649 446.961 280.173 446.839 279.712C446.791 279.511 446.738 279.321 446.685 279.13L446.918 279.035C446.918 279.035 446.918 278.722 446.992 278.188C447.792 278.029 448.55 277.708 449.221 277.245C449.891 276.781 450.459 276.185 450.89 275.493C450.89 275.493 455.835 269.935 460.209 267.601C464.583 265.266 464.911 261.884 464.911 261.884C464.265 260.756 466.071 256.166 466.071 256.166L465.907 251.201ZM451.642 258.612L446.961 264.038V264.006C445.743 262.312 448.094 258.527 448.094 258.527L451.986 249.846C451.954 250.958 451.816 251.963 451.456 252.403C450.397 253.853 453.405 256.272 453.405 256.272C451.8 256.278 451.642 258.612 451.642 258.612Z" fill="url(#paint0_linear)"/>
<path d="M369.227 187.472L366.67 192.432C365.86 192.363 365.062 192.196 364.292 191.934C363.073 191.57 361.944 190.952 360.981 190.119C360.018 189.287 359.243 188.26 358.706 187.107C356.424 182.067 360.199 178.812 361.957 177.848C363.715 176.885 365.351 175.789 366.67 178.949C367.497 181.093 368.189 183.287 368.74 185.519C369.047 186.678 369.227 187.472 369.227 187.472Z" fill="#CC818C"/>
<path d="M450.45 213.273L446.368 219.35C446.368 219.35 427.077 228.55 430.763 217.762C432.383 212.997 432.574 209.52 432.282 207.111C432.282 207.084 432.282 207.069 432.282 207.042C431.901 204.03 430.768 202.723 430.768 202.723C430.768 202.723 449.571 193.099 446.77 199.679C446.198 201.046 445.971 202.533 446.108 204.009C446.339 206.134 447.029 208.185 448.131 210.017C448.793 211.177 449.57 212.268 450.45 213.273Z" fill="#CC818C"/>
<path d="M444.578 333.654C444.578 333.654 447.352 345.3 446.166 347.2C444.98 349.1 445.107 353.388 445.107 353.388C445.107 353.388 442.867 370.031 442.015 370.666C441.315 371.285 440.704 371.998 440.199 372.784C440.199 372.784 441.724 376.553 440.808 378.109C440.666 378.346 440.453 378.532 440.199 378.638C438.769 379.242 433.484 376.563 430.477 374.933C430.234 374.801 430.028 374.612 429.874 374.382C429.721 374.153 429.625 373.89 429.595 373.616C429.564 373.341 429.601 373.064 429.701 372.806C429.801 372.549 429.962 372.32 430.17 372.138C429.989 371.777 429.938 371.365 430.027 370.971C430.116 370.577 430.338 370.227 430.657 369.978L431.451 369.364L431.266 369.147C431.028 368.866 430.885 368.518 430.856 368.151C430.828 367.784 430.915 367.418 431.107 367.104C431.451 366.527 431.785 365.516 431.875 363.711C432.092 359.55 433.156 357.951 433.156 357.951L432.515 338.958C432.576 337.928 432.576 336.896 432.515 335.866C432.409 334.697 430.434 335.469 430.117 335.147C429.799 334.824 429.741 333.31 428.888 332.881C428.495 332.536 428.224 332.074 428.115 331.563C427.738 330.364 427.664 329.091 427.898 327.857C427.953 327.561 427.946 327.257 427.877 326.964C427.809 326.67 427.681 326.394 427.501 326.153C426.542 324.872 426.86 320.505 426.86 320.505L425.388 311.357C423.042 319.118 420.061 328.466 419.071 329.144C418.596 329.428 418.206 329.835 417.943 330.323C417.681 330.81 417.554 331.359 417.578 331.912C418.965 333.622 418.43 340.985 418.43 340.985C418.43 340.985 418.43 361.355 417.429 362.747C416.429 364.139 414.491 368.422 414.491 368.422C414.491 368.422 420.209 373.509 415.708 376.076H415.661C411.07 378.639 401.576 371.492 401.576 371.492L402.566 370.502L402.857 370.211L401.734 368.538C400.633 366.617 404.954 362.991 404.954 362.991C404.954 362.991 403.8 358.507 404.223 358.295C404.647 358.084 404.954 354.029 404.954 354.029C404.954 354.029 403.895 339.307 404.329 337.92C404.387 337.594 404.369 337.259 404.278 336.941C404.186 336.622 404.022 336.329 403.8 336.083C403.217 335.248 402.93 334.242 402.984 333.225C403.077 332.348 402.824 331.469 402.28 330.774C400.998 329.387 402.28 323.416 402.28 323.416L403.339 315.518V302.978C403.353 300.557 403.807 298.159 404.679 295.9C405.326 294.069 405.718 292.158 405.844 290.22C406.193 286.176 408.369 282.248 409.831 280.009C410.604 278.823 411.181 278.114 411.181 278.114L445.324 276.78C445.324 276.78 445.854 278.299 446.426 280.411C446.542 280.872 446.659 281.359 446.77 281.867C447.485 285.149 447.914 289.214 446.468 291.501C446.272 291.811 446.095 292.133 445.939 292.465C443.985 296.625 445.319 301.85 445.319 301.85C445.319 301.85 443.614 313.686 442.867 315.613C442.338 316.974 442.825 318.874 443.159 319.848C443.314 320.325 443.395 320.823 443.397 321.325V325.544C443.397 325.544 444.255 329.064 443.826 330.028C443.397 330.991 444.578 333.654 444.578 333.654Z" fill="#444053"/>
<path opacity="0.1" d="M446.15 291.84C445.953 292.147 445.776 292.467 445.621 292.798L443.699 292.692C443.884 291.702 442.576 282.423 442.576 282.423L446.447 282.206C447.162 285.482 447.596 289.548 446.15 291.84Z" fill="black"/>
<path d="M446.468 291.517C446.272 291.827 446.095 292.149 445.939 292.48L444.016 292.369C444.202 291.385 442.894 282.1 442.894 282.1L446.765 281.883C447.485 285.165 447.914 289.23 446.468 291.517Z" fill="#444053"/>
<path opacity="0.05" d="M446.468 291.517C446.272 291.827 446.095 292.149 445.939 292.48L444.016 292.369C444.202 291.385 442.894 282.1 442.894 282.1L446.765 281.883C447.485 285.165 447.914 289.23 446.468 291.517Z" fill="black"/>
<path opacity="0.1" d="M440.813 378.13C440.672 378.367 440.458 378.553 440.204 378.66C438.774 379.263 433.49 376.585 430.482 374.954C430.107 374.747 429.822 374.407 429.682 374.001C431.398 373.689 432.521 375.589 432.521 375.589C432.807 375.41 433.126 375.29 433.459 375.236C433.792 375.181 434.133 375.194 434.461 375.274C434.789 375.353 435.098 375.498 435.369 375.698C435.641 375.899 435.87 376.151 436.042 376.442C437.509 378.602 440.654 377.691 440.654 377.691L440.813 378.13Z" fill="black"/>
<path d="M441.697 384.668C441.379 385.631 438.975 385.631 438.975 385.631C438.975 385.631 434.681 386.859 432.759 387.817C430.837 388.776 429.534 388.273 429.534 388.273C425.134 389.284 419.473 387.526 417.768 387.177C416.063 386.828 415.396 384.62 417.504 384.191C417.774 384.136 418.038 384.054 418.293 383.948C419.348 383.491 420.263 382.76 420.94 381.83C422.367 380.459 423.868 379.168 425.436 377.961C426.515 377.159 427.465 376.197 428.253 375.108C430.763 372.895 432.547 375.933 432.547 375.933C432.833 375.754 433.153 375.634 433.486 375.581C433.82 375.527 434.16 375.54 434.489 375.62C434.817 375.7 435.126 375.845 435.397 376.046C435.668 376.247 435.897 376.5 436.068 376.791C437.535 378.951 440.68 378.035 440.68 378.035C440.68 378.035 441.247 379.48 441.512 380.518C441.575 380.782 441.644 381.111 441.708 381.481C441.851 382.556 441.941 383.948 441.697 384.668Z" fill="#FF748F"/>
<path d="M434.358 377.924C434.519 377.924 434.649 377.794 434.649 377.633C434.649 377.472 434.519 377.342 434.358 377.342C434.197 377.342 434.067 377.472 434.067 377.633C434.067 377.794 434.197 377.924 434.358 377.924Z" fill="#575988"/>
<path d="M431.853 380.269C432.014 380.269 432.145 380.139 432.145 379.978C432.145 379.817 432.014 379.687 431.853 379.687C431.693 379.687 431.562 379.817 431.562 379.978C431.562 380.139 431.693 380.269 431.853 380.269Z" fill="#575988"/>
<path d="M429.306 382.376C429.467 382.376 429.598 382.245 429.598 382.085C429.598 381.924 429.467 381.793 429.306 381.793C429.146 381.793 429.015 381.924 429.015 382.085C429.015 382.245 429.146 382.376 429.306 382.376Z" fill="#575988"/>
<path d="M430.625 381.433C430.786 381.433 430.916 381.303 430.916 381.142C430.916 380.982 430.786 380.851 430.625 380.851C430.464 380.851 430.334 380.982 430.334 381.142C430.334 381.303 430.464 381.433 430.625 381.433Z" fill="#575988"/>
<path d="M433.161 379.025C433.322 379.025 433.453 378.895 433.453 378.734C433.453 378.573 433.322 378.443 433.161 378.443C433.001 378.443 432.87 378.573 432.87 378.734C432.87 378.895 433.001 379.025 433.161 379.025Z" fill="#575988"/>
<path d="M441.697 384.668C441.379 385.631 438.975 385.631 438.975 385.631C438.975 385.631 434.681 386.859 432.759 387.818C430.837 388.776 429.534 388.273 429.534 388.273C425.134 389.284 419.473 387.526 417.768 387.177C416.063 386.828 415.396 384.62 417.504 384.191C417.774 384.136 418.038 384.054 418.293 383.948C420.154 384.589 422.098 384.958 424.064 385.044C428.412 385.229 431.853 385.044 431.853 385.044L436.254 383.63C437.087 383.125 438.012 382.79 438.975 382.646C439.95 382.447 440.871 382.047 441.681 381.471C441.851 382.556 441.941 383.948 441.697 384.668Z" fill="#DCE6F2"/>
<path opacity="0.5" d="M430.747 387.426C430.501 387.427 430.257 387.404 430.016 387.357L430.08 387.045C430.979 387.182 431.9 387.053 432.727 386.674C433.119 386.521 433.511 386.335 433.892 386.145C434.273 385.954 434.808 385.716 435.285 385.541L435.719 385.393C435.957 385.308 436.201 385.229 436.434 385.128C436.566 385.075 436.699 385.012 436.826 384.948C437.138 384.785 437.469 384.659 437.811 384.573C437.986 384.54 438.162 384.517 438.34 384.504C438.503 384.493 438.666 384.473 438.827 384.445C439.148 384.365 439.458 384.249 439.754 384.101C440.07 383.939 440.404 383.814 440.749 383.731L440.982 383.694C441.234 383.687 441.476 383.598 441.671 383.44L441.909 383.657C441.666 383.87 441.358 383.995 441.035 384.011L440.813 384.048C440.492 384.127 440.181 384.242 439.886 384.393C439.569 384.55 439.235 384.673 438.891 384.758C438.716 384.792 438.539 384.813 438.361 384.821C438.194 384.834 438.028 384.855 437.863 384.885C437.545 384.967 437.238 385.086 436.947 385.24L436.545 385.425C436.301 385.525 436.047 385.61 435.804 385.695L435.38 385.843C434.914 386.012 434.459 386.229 434.014 386.436C433.569 386.642 433.23 386.806 432.828 386.965C432.169 387.246 431.463 387.403 430.747 387.426Z" fill="#575988"/>
<path opacity="0.1" d="M431.774 334.427C431.774 334.427 433.987 331.25 437.779 331.25C441.57 331.25 443.19 330.822 443.19 330.822C443.19 330.822 440.765 332.262 439.087 332.447C437.408 332.632 431.774 334.427 431.774 334.427Z" fill="black"/>
<path opacity="0.1" d="M433.055 335.173C433.055 335.173 435.057 333.786 436.201 333.733C437.345 333.68 438.319 333.574 438.319 333.574C437.782 333.951 437.189 334.239 436.561 334.427C435.624 334.691 433.055 335.173 433.055 335.173Z" fill="black"/>
<path opacity="0.1" d="M433.506 336.131C433.506 336.131 436.518 336.369 436.545 337.19L433.506 336.131Z" fill="black"/>
<path opacity="0.1" d="M405.404 291.136C405.563 291.162 408.258 288.336 408.443 287.219C408.591 286.512 409.011 285.891 409.614 285.493C409.614 285.493 411.351 286.186 409.804 288.314C408.258 290.442 405.404 291.136 405.404 291.136Z" fill="black"/>
<path opacity="0.1" d="M446.743 199.668C446.129 201.119 445.589 201.256 445.684 202.638C444.97 203.395 444.147 204.042 443.243 204.56C441.337 205.692 439.261 207.91 436.889 207.91C435.3 207.911 433.724 207.613 432.245 207.032C431.864 204.02 430.731 202.712 430.731 202.712C430.731 202.712 449.539 193.088 446.743 199.668Z" fill="black"/>
<path d="M449.624 194.549C449.624 197.062 448.879 199.518 447.482 201.608C446.086 203.697 444.101 205.325 441.779 206.287C439.457 207.248 436.902 207.5 434.436 207.01C431.971 206.52 429.707 205.31 427.929 203.533C426.152 201.756 424.942 199.492 424.451 197.028C423.961 194.563 424.213 192.009 425.175 189.687C426.136 187.366 427.765 185.382 429.855 183.986C431.945 182.59 434.402 181.845 436.916 181.845C440.286 181.845 443.519 183.183 445.902 185.566C448.285 187.948 449.624 191.18 449.624 194.549Z" fill="#CC818C"/>
<path opacity="0.1" d="M450.45 213.273L446.368 219.35C446.368 219.35 427.077 228.55 430.763 217.762C432.383 212.997 432.574 209.52 432.282 207.111H432.314C432.542 207.909 432.672 208.732 432.701 209.562C432.759 211.224 432.801 213.326 436.937 214.019C443.821 215.173 447.495 210.875 448.141 210.033C448.801 211.187 449.575 212.272 450.45 213.273Z" fill="black"/>
<path opacity="0.1" d="M369.227 187.472L366.67 192.432C365.86 192.363 365.062 192.196 364.292 191.934L364.07 191.67C365.129 192.072 368.629 185.428 368.629 185.428L368.74 185.518C369.047 186.678 369.227 187.472 369.227 187.472Z" fill="black"/>
<path opacity="0.1" d="M446.426 280.427C438.187 284.005 409.688 280.956 409.688 280.956C409.773 280.653 409.821 280.34 409.831 280.025C410.604 278.839 411.181 278.13 411.181 278.13L445.324 276.796C445.324 276.796 445.88 278.315 446.426 280.427Z" fill="black"/>
<path d="M432.293 207.407L428.491 209.033C427.917 209.028 427.357 208.859 426.876 208.547C426.395 208.235 426.013 207.792 425.775 207.27C424.89 205.433 421.771 207.27 421.771 207.27C421.771 207.27 412.24 206.55 408.724 208.329C408.724 208.329 403.042 205.925 402.243 205.766C401.443 205.608 400.241 204.967 399.68 205.126C399.119 205.285 398.404 204.067 398.001 204.168C397.599 204.268 397.44 203.368 396.159 203.046C394.877 202.723 394.401 203.125 392.982 201.685C391.562 200.245 379.855 194.565 379.855 194.565L374.56 190.246L368.957 185.767C368.957 185.767 365.436 192.405 364.393 192.003L375.036 204.808C375.036 204.808 382.72 211.526 388.004 213.686C393.289 215.845 392.886 216.486 392.886 216.486C392.886 216.486 408.894 224.649 411.372 224.49C413.85 224.331 413.384 241.191 412.325 243.912C411.266 246.633 409.608 266.314 409.608 266.314C409.608 266.314 408.02 270.475 409.688 273.355C409.688 273.355 410.085 279.278 409.688 280.316C409.688 280.316 438.361 283.381 446.5 279.755C446.5 279.755 447.702 266.473 446.5 264.795C445.298 263.117 447.622 259.374 447.622 259.374L452.743 247.935L465.229 235.373C465.229 235.373 467.146 224.892 458.584 218.175L452.902 213.13C452.902 213.13 449.725 210.382 448.793 210.208C447.861 210.033 448.205 210.208 448.205 210.208C448.205 210.208 444.498 215.612 436.894 214.331C432.775 213.638 432.732 211.536 432.658 209.88C432.637 209.044 432.514 208.214 432.293 207.407Z" fill="#3D348B"/>
<path opacity="0.1" d="M447.94 250.476C447.94 250.476 430.328 251.196 426.812 256.728C426.812 256.728 431.377 254.563 435.454 255.203C439.531 255.844 447.94 250.476 447.94 250.476Z" fill="black"/>
<path opacity="0.1" d="M428.491 269.755C428.491 269.755 436.815 270.316 438.578 268.553C440.342 266.791 440.347 265.753 440.347 265.753L428.491 269.755Z" fill="black"/>
<path opacity="0.1" d="M449.624 233.51C449.624 233.51 442.576 241.831 451.144 245.431L449.624 233.51Z" fill="black"/>
<path opacity="0.1" d="M407.925 217.433C407.925 217.433 410.487 222.658 411.769 223.002L407.925 217.433Z" fill="black"/>
<path opacity="0.1" d="M399.283 215.189C399.283 215.189 405.685 220.954 406.887 221.51C406.887 221.51 400.241 215.189 399.283 215.189Z" fill="black"/>
<path opacity="0.1" d="M424.811 209.673C424.811 209.673 418.647 218.873 422.65 224.495C422.65 224.474 420.411 217.83 424.811 209.673Z" fill="black"/>
<path d="M440.347 279.358L438.462 281.131L438.197 281.374L436.015 283.439C435.862 283.555 435.708 283.672 435.549 283.778C426.669 290.13 424.89 280.475 424.89 280.475C424.89 280.475 420.972 283.037 420.411 280.956C419.849 278.876 429.534 275.917 431.001 276.076C431.129 276.089 431.259 276.089 431.387 276.076C432.087 275.959 432.761 275.721 433.378 275.372L433.807 275.144C434.301 274.866 434.779 274.564 435.242 274.239L440.347 279.358Z" fill="#CC818C"/>
<path opacity="0.1" d="M449.921 194.549C449.925 196.753 449.357 198.92 448.271 200.837C447.184 202.754 445.618 204.357 443.725 205.486C443.548 205.189 443.392 204.879 443.259 204.559C442.804 203.501 442.523 202.357 442.063 201.293C441.559 200.132 440.84 199.076 439.945 198.181C439.793 198.003 439.598 197.868 439.378 197.789C439.172 197.761 438.962 197.775 438.762 197.83C438.562 197.886 438.375 197.981 438.213 198.112C437.674 198.477 437.073 198.741 436.439 198.89C436.122 198.963 435.792 198.952 435.48 198.859C435.168 198.767 434.886 198.595 434.66 198.361C434.162 197.768 434.231 196.9 434.374 196.143C434.686 194.486 435.205 192.855 435.211 191.172C435.216 189.489 434.57 187.678 433.093 186.842C431.801 186.106 430.196 186.313 428.761 185.9C428.539 185.841 428.321 185.767 428.11 185.677C429.874 183.867 432.138 182.624 434.613 182.107C437.088 181.59 439.66 181.823 442.002 182.775C444.344 183.728 446.348 185.357 447.758 187.454C449.169 189.552 449.922 192.022 449.921 194.549Z" fill="black"/>
<path d="M427.241 183.645C427.014 183.766 426.759 183.989 426.828 184.243C426.872 184.364 426.954 184.468 427.061 184.539C427.654 185.018 428.339 185.369 429.073 185.571C430.508 185.963 432.118 185.778 433.41 186.514C434.872 187.345 435.528 189.16 435.528 190.844C435.528 192.527 434.999 194.158 434.697 195.809C434.554 196.571 434.48 197.44 434.978 198.032C435.204 198.265 435.487 198.436 435.798 198.529C436.11 198.622 436.44 198.633 436.757 198.562C437.391 198.415 437.992 198.153 438.531 197.789C438.693 197.658 438.881 197.561 439.082 197.505C439.283 197.448 439.494 197.433 439.701 197.461C439.919 197.544 440.113 197.678 440.267 197.852C441.164 198.749 441.882 199.807 442.386 200.97C442.852 202.029 443.127 203.167 443.582 204.237C443.979 205.327 444.723 206.257 445.7 206.883C446.717 207.444 448.126 207.413 448.909 206.545C449.693 205.676 449.629 204.485 450 203.442C450.635 201.627 452.409 200.489 453.521 198.922C454.766 197.159 455.11 194.946 455.449 192.813C455.599 192.141 455.61 191.446 455.481 190.77C455.335 190.322 455.147 189.89 454.919 189.478C453.68 186.916 453.707 183.692 451.742 181.649C450.259 180.114 448.009 179.648 445.891 179.383C443.773 179.119 441.549 178.97 439.733 177.853C439.223 177.468 438.662 177.158 438.065 176.932C437.762 176.826 437.433 176.829 437.132 176.941C436.832 177.054 436.581 177.268 436.423 177.546C436.386 177.709 436.312 177.861 436.206 177.991C436.111 178.046 436.005 178.078 435.895 178.084C435.786 178.09 435.677 178.071 435.576 178.028L432.759 177.271L433.082 178.69C432.058 178.733 431.037 178.552 430.09 178.16C430.037 178.965 430.943 179.484 431.223 180.235C431.325 180.577 431.329 180.941 431.235 181.285C431.142 181.629 430.954 181.94 430.694 182.183C429.672 183.21 428.396 183.015 427.241 183.645Z" fill="#585268"/>
<path opacity="0.1" d="M415.825 374.806L415.708 376.082H415.661C411.07 378.644 401.576 371.497 401.576 371.497L402.566 370.508C402.728 370.688 402.851 370.9 402.926 371.131C403.001 371.362 403.026 371.606 403 371.847L404.938 371.953L407.257 374.457C407.257 374.457 413.532 375.182 415.232 374.779L415.825 374.806Z" fill="black"/>
<path d="M415.02 381.762C412.034 382.429 401.576 382.381 401.576 382.381L395.709 383.308C395.709 383.308 385.648 384.271 384.531 381.148C383.413 378.025 385.409 378.22 385.409 378.22H385.489L389.677 377.882C389.677 377.882 394.973 375.828 396.937 374.414C398.475 373.218 399.927 371.916 401.284 370.518C401.284 370.518 403.032 370.179 403 372.202L404.938 372.308L407.257 374.817C407.257 374.817 413.532 375.542 415.232 375.134H415.825L415.555 378.231L415.629 378.321C416.031 378.808 417.689 381.169 415.02 381.762Z" fill="#FF748F"/>
<path d="M404.191 374.293C404.352 374.293 404.483 374.162 404.483 374.001C404.483 373.841 404.352 373.71 404.191 373.71C404.031 373.71 403.9 373.841 403.9 374.001C403.9 374.162 404.031 374.293 404.191 374.293Z" fill="#575988"/>
<path d="M396.667 377.553C396.828 377.553 396.958 377.423 396.958 377.262C396.958 377.101 396.828 376.971 396.667 376.971C396.506 376.971 396.376 377.101 396.376 377.262C396.376 377.423 396.506 377.553 396.667 377.553Z" fill="#575988"/>
<path d="M392.791 378.728C392.952 378.728 393.082 378.598 393.082 378.437C393.082 378.277 392.952 378.146 392.791 378.146C392.63 378.146 392.5 378.277 392.5 378.437C392.5 378.598 392.63 378.728 392.791 378.728Z" fill="#575988"/>
<path d="M398.642 376.929C398.803 376.929 398.933 376.798 398.933 376.638C398.933 376.477 398.803 376.346 398.642 376.346C398.481 376.346 398.351 376.477 398.351 376.638C398.351 376.798 398.481 376.929 398.642 376.929Z" fill="#575988"/>
<path d="M394.724 378.141C394.885 378.141 395.015 378.011 395.015 377.85C395.015 377.689 394.885 377.559 394.724 377.559C394.563 377.559 394.432 377.689 394.432 377.85C394.432 378.011 394.563 378.141 394.724 378.141Z" fill="#575988"/>
<path d="M400.638 376.002C400.799 376.002 400.93 375.872 400.93 375.711C400.93 375.55 400.799 375.42 400.638 375.42C400.478 375.42 400.347 375.55 400.347 375.711C400.347 375.872 400.478 376.002 400.638 376.002Z" fill="#575988"/>
<path d="M402.614 375.145C402.774 375.145 402.905 375.014 402.905 374.854C402.905 374.693 402.774 374.562 402.614 374.562C402.453 374.562 402.322 374.693 402.322 374.854C402.322 375.014 402.453 375.145 402.614 375.145Z" fill="#575988"/>
<path d="M415.02 381.762C412.034 382.429 401.576 382.381 401.576 382.381L395.709 383.307C395.709 383.307 385.648 384.271 384.531 381.148C383.413 378.024 385.409 378.22 385.409 378.22H385.489C386.13 379.051 387.416 379.994 389.942 380.041L397.175 380.332L404.668 379.803C404.668 379.803 411.689 379.597 412.833 379.353C413.794 379.095 414.729 378.751 415.629 378.326C416.031 378.808 417.689 381.169 415.02 381.762Z" fill="#DCE6F2"/>
<path opacity="0.5" d="M396.275 382.603C395.875 382.609 395.476 382.559 395.089 382.455L395.174 382.148C396.161 382.36 397.186 382.315 398.15 382.016C398.504 381.92 398.854 381.82 399.209 381.714C399.85 381.511 400.502 381.346 401.163 381.222C402.23 381.083 403.308 381.051 404.382 381.126H404.61C407.818 381.295 411.035 381.151 414.215 380.698C414.97 380.645 415.689 380.356 416.27 379.872L416.497 380.099C415.87 380.633 415.089 380.953 414.268 381.015C411.067 381.471 407.828 381.615 404.599 381.444H404.366C403.307 381.37 402.242 381.402 401.189 381.539C400.542 381.66 399.904 381.821 399.278 382.021C398.923 382.127 398.568 382.233 398.219 382.323C397.585 382.495 396.932 382.589 396.275 382.603Z" fill="#575988"/>
<path opacity="0.1" d="M440.347 279.358L438.462 281.131L433.781 275.139C434.274 274.861 434.753 274.559 435.216 274.234L440.347 279.358Z" fill="black"/>
<path d="M461.57 230.26L465.277 235.379V240.741C465.277 240.741 466.955 246.421 465.277 252.101L465.457 257.061C465.457 257.061 463.672 261.619 464.313 262.741C464.313 262.741 463.995 266.103 459.674 268.421C455.353 270.74 450.45 276.235 450.45 276.235C450.45 276.235 448.607 279.755 443.646 278.955L438.922 280.956L433.484 273.995L440.845 269.993C440.845 269.993 443.408 266.558 444.927 266.717L451.17 259.433C451.17 259.433 451.329 257.114 452.928 257.114C452.928 257.114 449.968 254.716 451.006 253.276C452.044 251.836 451.17 245.431 451.17 245.431L461.57 230.26Z" fill="#3D348B"/>
<path opacity="0.1" d="M454.686 253.594C454.686 253.594 463.09 253.435 464.128 255.595C465.165 257.755 457.223 252.392 454.686 253.594Z" fill="black"/>
<path opacity="0.1" d="M438.234 280.956C438.235 281.097 438.223 281.237 438.197 281.374C438.1 282.019 437.784 282.61 437.302 283.048C436.819 283.486 436.2 283.743 435.549 283.778H435.401C434.651 283.778 433.932 283.48 433.402 282.95C432.872 282.42 432.574 281.701 432.574 280.951C432.574 280.639 432.628 280.329 432.732 280.035C431.398 278.976 431.324 277.028 431.361 276.065C432.061 275.949 432.735 275.71 433.352 275.361C433.7 276.361 434.168 277.315 434.745 278.204C434.96 278.153 435.18 278.126 435.401 278.124C435.773 278.124 436.142 278.197 436.485 278.34C436.829 278.482 437.141 278.691 437.404 278.954C437.667 279.217 437.876 279.529 438.018 279.872C438.161 280.216 438.234 280.584 438.234 280.956Z" fill="black"/>
<path d="M433.606 274.726C433.606 274.726 431.71 275.155 431.71 275.499C431.71 275.843 431.282 278.966 433.363 280.263C435.444 281.56 435.232 278.474 435.232 278.474C435.232 278.474 433.442 275.732 433.606 274.726Z" fill="#575988"/>
<path d="M435.719 283.783C437.281 283.783 438.547 282.517 438.547 280.956C438.547 279.395 437.281 278.13 435.719 278.13C434.157 278.13 432.891 279.395 432.891 280.956C432.891 282.517 434.157 283.783 435.719 283.783Z" fill="#E4AAB4"/>
<path d="M435.719 283.381C437.058 283.381 438.144 282.295 438.144 280.956C438.144 279.617 437.058 278.532 435.719 278.532C434.38 278.532 433.294 279.617 433.294 280.956C433.294 282.295 434.38 283.381 435.719 283.381Z" fill="#DCE6F2"/>
<path opacity="0.1" d="M424.705 282.052C424.705 282.052 430.683 287.007 438.361 283.863V286.266C438.361 286.266 433.241 289.786 428.602 287.653C423.964 285.519 424.705 282.052 424.705 282.052Z" fill="black"/>
<path opacity="0.1" d="M424.705 281.411C424.705 281.411 430.683 286.372 438.361 283.222V285.625C438.361 285.625 433.241 289.145 428.602 287.012C423.964 284.879 424.705 281.411 424.705 281.411Z" fill="black"/>
<path d="M424.705 281.411C424.705 281.411 430.683 286.372 438.361 283.222V285.625C438.361 285.625 433.241 289.145 428.602 287.012C423.964 284.879 424.705 281.411 424.705 281.411Z" fill="#444053"/>
<path opacity="0.05" d="M424.864 281.411C424.864 281.411 430.842 286.372 438.525 283.222V285.625C438.525 285.625 433.405 289.145 428.761 287.012C424.117 284.879 424.864 281.411 424.864 281.411Z" fill="black"/>
<path opacity="0.1" d="M405.923 370.508C405.923 370.508 413.929 371.979 415.1 372.297C416.27 372.614 414.782 373.175 414.782 373.175C414.782 373.175 407.474 371.868 405.923 370.508Z" fill="black"/>
<path opacity="0.1" d="M405.738 366.267C405.87 366.267 411.181 364.775 412.325 362.218L405.738 366.267Z" fill="black"/>
<path opacity="0.1" d="M413.484 335.655C413.484 335.655 415.634 338.482 417.022 338.402C418.409 338.323 414.745 335.549 413.484 335.655Z" fill="black"/>
<path opacity="0.1" d="M414.676 340.366C414.676 340.366 415.581 342.362 416.916 341.721L414.676 340.366Z" fill="black"/>
<path opacity="0.05" d="M419.738 296.429L425.414 311.394C425.414 311.394 426.214 301.765 424.525 298.886C424.045 298.062 423.339 297.393 422.491 296.958C421.642 296.523 420.687 296.339 419.738 296.429Z" fill="black"/>
<g opacity="0.1">
<path opacity="0.1" d="M433.686 177.853L433.638 177.636L432.727 177.393L432.828 177.837C433.113 177.859 433.4 177.864 433.686 177.853Z" fill="black"/>
<path opacity="0.1" d="M431.181 181.464L431.276 181.379C431.537 181.136 431.725 180.824 431.818 180.48C431.912 180.136 431.908 179.773 431.806 179.431C431.696 179.165 431.542 178.92 431.35 178.706C430.902 178.617 430.462 178.488 430.037 178.319C429.984 179.119 430.884 179.637 431.165 180.389C431.295 180.734 431.301 181.114 431.181 181.464Z" fill="black"/>
<path opacity="0.1" d="M446.32 206.063C445.333 205.441 444.579 204.51 444.175 203.416C443.725 202.357 443.445 201.214 442.984 200.155C442.481 198.992 441.762 197.934 440.866 197.037C440.713 196.861 440.518 196.726 440.299 196.645C440.093 196.618 439.884 196.633 439.684 196.688C439.484 196.744 439.297 196.839 439.134 196.968C438.595 197.333 437.994 197.597 437.36 197.747C437.043 197.818 436.713 197.807 436.402 197.714C436.09 197.622 435.808 197.451 435.581 197.217C435.083 196.624 435.152 195.751 435.295 194.994C435.608 193.342 436.127 191.707 436.132 190.029C436.137 188.35 435.491 186.529 434.014 185.698C432.722 184.963 431.117 185.169 429.682 184.756C428.946 184.554 428.26 184.202 427.665 183.724C427.627 183.693 427.592 183.659 427.559 183.623C427.439 183.669 427.322 183.724 427.21 183.787C426.977 183.909 426.728 184.131 426.791 184.386C426.839 184.506 426.922 184.609 427.03 184.682C427.622 185.161 428.307 185.513 429.042 185.714C430.477 186.106 432.081 185.921 433.373 186.657C434.835 187.488 435.491 189.303 435.491 190.987C435.491 192.67 434.962 194.3 434.655 195.952C434.512 196.714 434.443 197.582 434.941 198.175C435.167 198.409 435.449 198.58 435.761 198.673C436.072 198.765 436.403 198.776 436.72 198.705C437.353 198.558 437.955 198.296 438.494 197.932C438.655 197.801 438.842 197.704 439.042 197.648C439.243 197.591 439.452 197.576 439.659 197.604C439.877 197.685 440.072 197.82 440.225 197.995C441.119 198.894 441.838 199.951 442.343 201.113C442.809 202.172 443.085 203.31 443.54 204.379C443.937 205.47 444.681 206.4 445.658 207.026C446.669 207.587 448.083 207.556 448.835 206.687C449.043 206.452 449.205 206.179 449.312 205.883C448.885 206.201 448.374 206.387 447.843 206.419C447.311 206.451 446.782 206.327 446.32 206.063Z" fill="black"/>
<path opacity="0.1" d="M450.895 201.992C451.694 200.981 452.748 200.118 453.5 199.059C453.648 198.848 453.786 198.625 453.913 198.403C452.944 199.636 451.615 200.616 450.895 201.992Z" fill="black"/>
</g>
<defs>
<linearGradient id="paint0_linear" x1="411.732" y1="388.58" x2="411.732" y2="175.048" gradientUnits="userSpaceOnUse">
<stop stop-color="#808080" stop-opacity="0.25"/>
<stop offset="0.54" stop-color="#808080" stop-opacity="0.12"/>
<stop offset="1" stop-color="#808080" stop-opacity="0.1"/>
</linearGradient>
</defs>
</svg>
