<svg width="437" height="307" viewBox="0 0 437 307" fill="none" xmlns="http://www.w3.org/2000/svg">
<g id="contact image">
<path id="Vector" opacity="0.1" d="M218.5 264C339.174 264 437 261.761 437 259C437 256.239 339.174 254 218.5 254C97.8258 254 0 256.239 0 259C0 261.761 97.8258 264 218.5 264Z" fill="#27AE60"/>
<path id="Vector_2" opacity="0.1" d="M218.5 307C339.174 307 437 304.761 437 302C437 299.239 339.174 297 218.5 297C97.8258 297 0 299.239 0 302C0 304.761 97.8258 307 218.5 307Z" fill="#27AE60"/>
<path id="Vector_3" opacity="0.1" d="M218.5 175C339.174 175 437 172.538 437 169.5C437 166.462 339.174 164 218.5 164C97.8258 164 0 166.462 0 169.5C0 172.538 97.8258 175 218.5 175Z" fill="#27AE60"/>
<path id="Vector_4" opacity="0.1" d="M218.5 219C339.174 219 437 216.761 437 214C437 211.239 339.174 209 218.5 209C97.8258 209 0 211.239 0 214C0 216.761 97.8258 219 218.5 219Z" fill="#27AE60"/>
<g id="cloud-top">
<path id="Vector_5" opacity="0.1" d="M32.3795 27.6867C30.2719 27.2891 28.0936 27.5273 26.122 28.3709C24.9385 28.8979 23.6573 29.1702 22.3616 29.1702C21.066 29.1702 19.7848 28.8979 18.6013 28.3709C17.201 27.7568 15.6839 27.4541 14.155 27.4836C12.626 27.5131 11.1218 27.8743 9.74634 28.542C8.96272 28.9579 8.08937 29.1766 7.20203 29.179C3.61284 29.179 0.631685 25.5692 0.0118408 20.8093C0.718174 20.2832 1.31898 19.6289 1.78282 18.8805C3.88439 15.4949 7.13707 13.3184 10.7971 13.3184C14.4571 13.3184 17.6685 15.4654 19.7701 18.8157C20.396 19.8279 21.2736 20.6609 22.3175 21.2335C23.3613 21.8062 24.5358 22.099 25.7265 22.0833H25.821C28.7077 22.0538 31.1811 24.3424 32.3795 27.6867Z" fill="#27AE60"/>
<path id="Vector_6" opacity="0.1" d="M43.3064 12.7345L37.5094 16.4032L41.0514 10.0095C40.0538 9.21611 38.8197 8.77813 37.5448 8.7649H37.4504C37.055 8.77028 36.6599 8.74068 36.2697 8.67643L34.2744 9.92098L35.1186 8.38741C33.7237 7.90502 32.5185 6.99203 31.677 5.78036L28.135 8.00992L30.3546 3.97547C28.3003 1.50997 25.5258 0 22.4797 0C18.8196 0 15.5669 2.17058 13.4595 5.55622C12.8382 6.56856 11.9599 7.39864 10.9138 7.96218C9.86769 8.52573 8.69096 8.80268 7.50307 8.7649H7.30826C3.27042 8.7649 0 13.3361 0 18.9749C0 24.6137 3.27042 29.1908 7.30826 29.1908C8.19515 29.1849 9.06768 28.9664 9.85257 28.5538C11.2274 27.8844 12.7315 27.5218 14.2605 27.4912C15.7896 27.4607 17.307 27.7629 18.7075 28.3768C19.89 28.9074 21.1716 29.1817 22.4679 29.1817C23.7641 29.1817 25.0457 28.9074 26.2282 28.3768C27.6176 27.7766 29.1196 27.4813 30.633 27.5108C32.1463 27.5403 33.6357 27.894 35.0005 28.5479C35.7768 28.9538 36.6391 29.1682 37.5153 29.1731C41.5531 29.1731 44.8236 24.596 44.8236 18.9572C44.8479 16.7887 44.3262 14.6488 43.3064 12.7345V12.7345Z" fill="#27AE60"/>
</g>
<g id="cloud-middle">
<path id="Vector_7" opacity="0.1" d="M22.6567 73.376C21.1796 73.0971 19.6529 73.2634 18.2706 73.8537C17.4431 74.2232 16.547 74.4141 15.6407 74.4141C14.7344 74.4141 13.8382 74.2232 13.0108 73.8537C12.0315 73.424 10.9702 73.2125 9.90082 73.2339C8.83144 73.2552 7.77953 73.509 6.81821 73.9776C6.27111 74.2627 5.66423 74.4143 5.04722 74.42C2.53833 74.42 0.448562 71.8955 0.0117188 68.5629C0.512538 68.1962 0.939211 67.7378 1.26912 67.2122C2.73904 64.8529 5.01771 63.3193 7.57974 63.3193C10.1418 63.3193 12.3909 64.8234 13.8608 67.165C14.2998 67.8739 14.9148 68.4572 15.6462 68.8582C16.3775 69.2592 17.2003 69.4643 18.0345 69.4536H18.0994C20.0829 69.4418 21.8126 71.0461 22.6567 73.376Z" fill="#27AE60"/>
<path id="Vector_8" opacity="0.1" d="M30.3015 62.9183L26.246 65.4899L28.7077 61.0131C28.0118 60.4565 27.1492 60.1491 26.2578 60.1401H26.187C25.9061 60.1452 25.6254 60.1234 25.3487 60.0753L23.9732 60.9482L24.5636 59.8747C23.5886 59.5359 22.7457 58.898 22.155 58.0521L19.6933 59.6093L21.2518 56.7899C20.5973 55.9455 19.7631 55.2571 18.8094 54.7745C17.8558 54.292 16.8067 54.0274 15.7382 54C13.1761 54 10.8975 55.5218 9.42754 57.8929C8.99188 58.6018 8.37638 59.1831 7.64343 59.5777C6.91047 59.9724 6.08611 60.1664 5.25392 60.1401H5.11814C2.29046 60.1401 0 63.337 0 67.2889C0 71.2408 2.29046 74.4377 5.11814 74.4377C5.73598 74.4329 6.34352 74.2791 6.88912 73.9894C7.85031 73.5234 8.90132 73.2716 9.96948 73.2512C11.0376 73.2308 12.0975 73.4424 13.0758 73.8714C13.9084 74.2508 14.8113 74.4517 15.7263 74.4613C16.6271 74.4597 17.5177 74.2709 18.3415 73.9068C19.3137 73.4864 20.3649 73.2794 21.424 73.2998C22.4832 73.3201 23.5256 73.5674 24.4809 74.0248C25.0274 74.3108 25.635 74.4606 26.2519 74.4613C29.0737 74.4613 31.3641 71.2585 31.3641 67.3125C31.388 65.7815 31.0224 64.2695 30.3015 62.9183V62.9183Z" fill="#27AE60"/>
</g>
<g id="cloud-bottom">
<path id="Vector_9" opacity="0.1" d="M8.69702 117.353C10.1722 117.074 11.6969 117.24 13.0773 117.83C13.9057 118.2 14.8028 118.391 15.7101 118.391C16.6174 118.391 17.5145 118.2 18.343 117.83C19.3223 117.401 20.3831 117.19 21.4522 117.21C22.5214 117.23 23.5733 117.482 24.5355 117.948C25.0809 118.239 25.6886 118.392 26.3065 118.397C28.8154 118.397 30.9052 115.866 31.3361 112.534C30.8358 112.168 30.4108 111.709 30.0846 111.183C28.6088 108.824 26.3301 107.296 23.774 107.296C21.2179 107.296 18.9628 108.794 17.487 111.142C17.0486 111.85 16.4345 112.432 15.7042 112.833C14.974 113.234 14.1525 113.44 13.3193 113.43H13.2544C11.265 113.442 9.52938 115.04 8.69702 117.353Z" fill="#27AE60"/>
<path id="Vector_10" opacity="0.1" d="M1.04636 106.912L5.10783 109.484L2.64024 105.013C3.33786 104.455 4.20224 104.145 5.09601 104.134H5.16095C5.4435 104.138 5.72589 104.119 6.00512 104.075L7.38058 104.942L6.79025 103.875C7.76323 103.535 8.60407 102.897 9.19289 102.052L11.6546 103.609L10.1197 100.784C10.7745 99.9404 11.609 99.2528 12.5626 98.7713C13.5163 98.2898 14.5652 98.0263 15.6334 98C18.1895 98 20.4741 99.5218 21.944 101.893C22.3792 102.601 22.9937 103.182 23.7256 103.576C24.4574 103.971 25.2805 104.165 26.1117 104.14H26.2534C29.0752 104.14 31.3656 107.343 31.3656 111.289C31.3656 115.235 29.0752 118.438 26.2534 118.438C25.636 118.435 25.0284 118.283 24.4824 117.995C23.5211 117.527 22.4692 117.273 21.3998 117.252C20.3304 117.23 19.2692 117.442 18.2899 117.871C17.4604 118.254 16.5587 118.455 15.6452 118.461C14.7424 118.461 13.8498 118.272 13.0241 117.907C12.0529 117.487 11.0027 117.28 9.94455 117.3C8.88637 117.32 7.8449 117.567 6.89061 118.025C6.34415 118.311 5.73654 118.461 5.11963 118.461C2.29195 118.461 0.00146922 115.264 0.00146922 111.313C-0.0260472 109.781 0.333338 108.268 1.04636 106.912V106.912Z" fill="#27AE60"/>
</g>
<g id="Phone">
<path id="Vector_11" d="M301.297 167.446C333.887 167.446 360.306 141.049 360.306 108.486C360.306 75.9237 333.887 49.5266 301.297 49.5266C268.707 49.5266 242.288 75.9237 242.288 108.486C242.288 141.049 268.707 167.446 301.297 167.446Z" fill="#3F3D56"/>
<path id="Vector_12" d="M326.628 123.692C324.573 121.639 319.632 118.543 317.183 117.387C314.355 116.03 313.316 116.054 311.315 117.499C309.65 118.678 308.57 119.817 306.657 119.398C304.744 118.979 300.954 116.124 297.288 112.473C293.623 108.822 290.777 105.059 290.37 103.119C289.962 101.178 291.084 100.122 292.277 98.459C293.717 96.4595 293.758 95.4214 292.389 92.5961C291.208 90.1483 288.144 85.2232 286.072 83.1588C284 81.0943 283.552 81.5485 282.418 81.9791C281.252 82.4677 280.131 83.0599 279.071 83.7486C277.017 85.1229 275.865 86.2672 275.057 87.9895C274.248 89.7118 273.333 92.9087 278.038 101.278C281.509 107.681 285.905 113.538 291.084 118.661V118.661C296.228 123.848 302.11 128.248 308.54 131.72C316.911 136.438 320.116 135.5 321.84 134.698C323.564 133.896 324.709 132.758 326.079 130.687C326.769 129.629 327.362 128.509 327.85 127.343C328.239 126.211 328.7 125.751 326.628 123.692Z" fill="#27AE60"/>
<path id="Vector_13" opacity="0.1" d="M301.297 49.5325C289.619 49.5266 278.201 52.9817 268.489 59.4607C258.776 65.9396 251.205 75.1512 246.734 85.9302C242.262 96.7091 241.091 108.571 243.367 120.015C245.644 131.46 251.267 141.972 259.525 150.223C267.783 158.474 278.304 164.092 289.758 166.367C301.212 168.642 313.084 167.471 323.872 163.003C334.66 158.535 343.879 150.971 350.364 141.267C356.848 131.562 360.306 120.154 360.3 108.486C360.292 92.8531 354.073 77.8625 343.01 66.8083C331.946 55.754 316.943 49.5403 301.297 49.5325V49.5325ZM301.297 159.607C291.178 159.607 281.286 156.609 272.872 150.992C264.458 145.374 257.9 137.39 254.028 128.049C250.155 118.708 249.142 108.429 251.116 98.513C253.09 88.5966 257.963 79.4877 265.119 72.3384C272.274 65.189 281.391 60.3202 291.315 58.3477C301.24 56.3752 311.527 57.3876 320.876 61.2568C330.225 65.126 338.216 71.6783 343.838 80.085C349.46 88.4918 352.461 98.3755 352.461 108.486C352.461 115.199 351.137 121.847 348.566 128.049C345.995 134.252 342.226 139.887 337.475 144.634C332.724 149.381 327.084 153.147 320.876 155.716C314.669 158.285 308.016 159.607 301.297 159.607Z" fill="black"/>
</g>
<g id="Group 1">
<path id="Vector_14" d="M165.728 257C198.318 257 224.737 230.603 224.737 198.04C224.737 165.478 198.318 139.081 165.728 139.081C133.138 139.081 106.719 165.478 106.719 198.04C106.719 230.603 133.138 257 165.728 257Z" fill="#3F3D56"/>
<path id="Vector_15" d="M199.288 180.227L181.62 198.188C181.588 198.218 181.564 198.253 181.547 198.293C181.53 198.332 181.521 198.375 181.521 198.418C181.521 198.461 181.53 198.503 181.547 198.543C181.564 198.582 181.588 198.618 181.62 198.648L194.016 211.819C194.313 212.117 194.515 212.497 194.596 212.91C194.678 213.322 194.635 213.75 194.475 214.139C194.314 214.527 194.042 214.86 193.692 215.095C193.343 215.329 192.932 215.456 192.511 215.458C191.945 215.457 191.401 215.232 191 214.833L178.668 201.709C178.605 201.647 178.52 201.612 178.432 201.612C178.343 201.612 178.259 201.647 178.196 201.709L175.191 204.741C173.961 205.998 172.491 206.997 170.869 207.678C169.247 208.36 167.505 208.711 165.746 208.71C163.953 208.702 162.179 208.337 160.529 207.636C158.879 206.935 157.385 205.913 156.135 204.629L153.248 201.68C153.185 201.618 153.101 201.583 153.012 201.583C152.924 201.583 152.839 201.618 152.776 201.68L140.474 214.774C140.276 214.972 140.041 215.129 139.782 215.236C139.523 215.344 139.246 215.399 138.965 215.399C138.685 215.399 138.408 215.344 138.149 215.236C137.89 215.129 137.655 214.972 137.457 214.774C137.258 214.577 137.1 214.342 136.992 214.083C136.884 213.824 136.829 213.547 136.829 213.267C136.829 212.987 136.884 212.709 136.992 212.451C137.1 212.192 137.258 211.957 137.457 211.76L149.807 198.618C149.862 198.554 149.892 198.473 149.892 198.388C149.892 198.304 149.862 198.222 149.807 198.158L132.138 180.198C132.093 180.152 132.035 180.121 131.972 180.109C131.908 180.096 131.843 180.102 131.784 180.127C131.724 180.152 131.673 180.193 131.638 180.247C131.602 180.301 131.583 180.364 131.583 180.428V216.366C131.588 217.756 132.142 219.087 133.126 220.069C134.109 221.051 135.441 221.605 136.831 221.61H194.607C195.997 221.605 197.329 221.051 198.313 220.069C199.296 219.087 199.85 217.756 199.855 216.366V180.457C199.858 180.391 199.84 180.324 199.804 180.268C199.767 180.212 199.715 180.168 199.653 180.143C199.591 180.118 199.522 180.112 199.457 180.127C199.392 180.143 199.333 180.177 199.288 180.227V180.227Z" fill="#27AE60"/>
<path id="Vector_16" d="M165.728 204.446C166.926 204.458 168.113 204.229 169.221 203.773C170.328 203.317 171.333 202.643 172.174 201.792L197.907 175.621C196.993 174.865 195.846 174.448 194.66 174.441H136.843C135.656 174.445 134.508 174.862 133.596 175.621L159.335 201.792C160.169 202.638 161.164 203.309 162.262 203.765C163.361 204.221 164.539 204.453 165.728 204.446V204.446Z" fill="#27AE60"/>
<path id="Vector_17" opacity="0.1" d="M164.984 139.087C153.306 139.081 141.888 142.536 132.176 149.015C122.464 155.494 114.893 164.705 110.421 175.484C105.949 186.263 104.778 198.125 107.055 209.57C109.331 221.014 114.954 231.527 123.212 239.777C131.47 248.028 141.991 253.646 153.445 255.921C164.899 258.196 176.771 257.026 187.559 252.558C198.347 248.09 207.566 240.525 214.051 230.821C220.535 221.117 223.993 209.709 223.987 198.04C223.98 182.407 217.761 167.417 206.697 156.362C195.633 145.308 180.63 139.094 164.984 139.087ZM164.984 249.161C154.865 249.161 144.973 246.163 136.559 240.546C128.145 234.929 121.587 226.945 117.715 217.603C113.842 208.262 112.829 197.984 114.803 188.067C116.778 178.151 121.65 169.042 128.806 161.893C135.961 154.743 145.078 149.874 155.002 147.902C164.927 145.929 175.215 146.942 184.564 150.811C193.913 154.68 201.903 161.232 207.525 169.639C213.147 178.046 216.148 187.93 216.148 198.04C216.148 211.598 210.757 224.601 201.162 234.188C191.567 243.775 178.553 249.161 164.984 249.161Z" fill="black"/>
</g>
<path id="Vector_18" d="M306.728 228.263C306.193 226.958 305.644 225.656 305.081 224.359C304.617 223.092 303.936 221.917 303.068 220.885C302.738 220.513 302.336 220.212 301.887 220C301.393 219.818 300.873 219.714 300.346 219.693C299.544 219.592 298.733 219.57 297.926 219.628C297.613 219.534 297.259 219.41 296.911 219.268C298.657 218.81 300.211 217.803 301.341 216.396C302.472 214.989 303.121 213.256 303.192 211.453C303.192 211.335 303.192 211.211 303.192 211.093C303.196 209.99 302.983 208.896 302.565 207.874C302.147 206.853 301.531 205.923 300.753 205.14C299.975 204.356 299.05 203.733 298.031 203.306C297.013 202.879 295.92 202.657 294.815 202.653C293.26 202.65 291.736 203.085 290.417 203.909C288.676 203.515 286.852 203.721 285.244 204.496C283.636 205.27 282.338 206.567 281.562 208.174C280.584 209.108 279.812 210.236 279.293 211.485C278.775 212.734 278.522 214.077 278.551 215.429C278.551 215.552 278.551 215.682 278.551 215.8C278.705 220.383 281.668 224.058 285.411 224.429C285.011 224.609 284.644 224.854 284.325 225.155C283.18 226.258 282.991 228.01 282.867 229.602L282.778 230.782L280.795 231.49C280.732 231.512 280.676 231.552 280.634 231.604C280.591 231.655 280.564 231.718 280.555 231.784C280.546 231.851 280.555 231.918 280.582 231.98C280.608 232.041 280.651 232.094 280.706 232.133L282.601 233.483C282.601 233.595 282.601 233.707 282.601 233.82C282.601 233.932 282.601 234.073 282.637 234.203C282.313 234.488 282.062 234.846 281.905 235.247C281.72 235.866 281.662 236.516 281.733 237.158L281.804 238.804C281.795 240.042 281.964 241.276 282.306 242.467C282.554 243.198 283.628 244.961 284.402 244.973C283.687 248.217 283.498 255.059 283.498 255.059C283.41 255.148 283.658 255.23 284.089 255.301C284.514 258.557 285.901 267.688 288.363 271.704C288.75 273.014 289.06 274.346 289.29 275.692C289.29 275.692 289.992 284.368 290.919 286.946C291.71 289.14 292.336 294.555 292.507 296.124C292.346 296.165 292.2 296.249 292.085 296.368C291.969 296.487 291.889 296.635 291.852 296.796C291.385 298.2 288.363 300.335 288.363 300.335C287.436 300.797 286.562 301.357 285.753 302.004C284.803 302.859 284.838 303.632 289.059 303.148C297.206 302.211 298.599 299.609 298.599 299.609C298.599 299.609 298.469 299.173 298.274 298.607C298.026 297.726 297.667 296.879 297.206 296.088C297.088 295.976 296.97 296.165 296.828 296.46C296.213 292.696 296.027 288.875 296.273 285.07C296.273 285.07 296.503 281.083 295.34 278.269C295.082 276.796 295.082 275.289 295.34 273.816C295.807 271.94 293.481 262.792 293.481 262.792L292.147 256.056C292.329 256.286 292.456 256.554 292.519 256.841L292.554 256.976L292.589 257.171C292.603 257.24 292.636 257.303 292.684 257.354C293.593 261.129 296.084 271.586 296.084 273.12C296.084 274.996 298.41 279.685 298.41 279.685C298.41 279.685 299.337 287.424 300.966 290.467C302.206 292.785 302.235 296.182 302.176 297.681C302.176 297.681 301.899 299.609 301.433 300.075C301.062 300.536 300.765 301.051 300.553 301.603L300.5 301.715C300.5 301.715 299.803 303.125 300.27 303.361C302.043 304.056 303.963 304.297 305.854 304.063C305.854 304.063 306.787 302.883 306.787 302.423C306.767 302.142 306.732 301.862 306.681 301.585C306.509 300.476 306.191 298.731 306.185 298.713C306.38 297.958 305.594 295.858 305.594 295.858L305.358 289.293C305.79 284.848 305.234 280.363 303.729 276.158C303.729 276.158 302.548 271.94 302.802 270.767C303.056 269.593 302.336 257.165 302.336 257.165L302.265 256.988C302.202 256.109 302.226 255.226 302.336 254.352C302.566 251.538 301.639 245.675 301.403 245.445C301.21 244.815 301.099 244.163 301.072 243.505C301.126 243.015 301.285 241.582 301.503 239.8C303.799 239.722 306.088 239.525 308.363 239.211C308.583 239.211 308.794 239.126 308.953 238.975C309.047 238.833 309.094 238.666 309.089 238.497C309.361 234.964 308.068 231.531 306.728 228.263ZM302.046 235.701C302.289 234.02 302.548 232.392 302.808 231.183L302.843 231.289C303.29 232.505 303.665 233.745 303.965 235.005C303.345 235.288 302.704 235.521 302.046 235.701Z" fill="url(#paint0_linear)"/>
<path id="Vector_19" d="M283.965 254.688C283.965 254.688 285.358 267.21 288.375 272.076C288.762 273.37 289.072 274.685 289.301 276.016C289.301 276.016 289.998 284.592 290.925 287.14C291.852 289.688 292.548 296.648 292.548 296.648C292.548 296.648 295.795 300.353 296.958 297.344C296.228 293.37 295.994 289.32 296.261 285.288C296.261 285.288 296.492 281.348 295.335 278.564C295.076 277.109 295.076 275.619 295.335 274.164C295.795 272.306 293.475 263.27 293.475 263.27L291.621 254.228L283.965 254.688Z" fill="#BE6F72"/>
<path id="Vector_20" d="M298.581 299.662C298.581 299.662 297.188 302.21 289.071 303.137C284.856 303.614 284.827 302.853 285.777 302.004C286.583 301.364 287.453 300.811 288.375 300.352C288.375 300.352 291.391 298.27 291.852 296.878C292.312 295.486 293.941 296.648 293.941 296.648C296.261 300.122 296.728 295.716 297.188 296.182C297.65 296.96 298.009 297.795 298.257 298.666C298.451 299.226 298.581 299.662 298.581 299.662Z" fill="#205FCE"/>
<path id="Vector_21" opacity="0.1" d="M298.581 299.662C298.581 299.662 297.188 302.211 289.071 303.137C284.856 303.614 284.827 302.853 285.777 302.004C286.438 302.423 287.772 302.594 290.458 301.515C294.325 299.934 297.129 299.02 298.257 298.666C298.451 299.226 298.581 299.662 298.581 299.662Z" fill="black"/>
<path id="Vector_22" opacity="0.1" d="M296.261 285.288C296.261 285.288 296.492 281.348 295.334 278.564C295.076 277.109 295.076 275.619 295.334 274.164C295.795 272.306 293.475 263.27 293.475 263.27L291.621 254.228L290.016 254.322L291.852 263.27C291.852 263.27 294.172 272.306 293.711 274.164C293.452 275.619 293.452 277.109 293.711 278.564C294.892 281.348 294.638 285.288 294.638 285.288C294.37 289.32 294.604 293.37 295.334 297.344C295.209 297.722 294.975 298.054 294.662 298.3C295.523 298.689 296.432 298.672 296.958 297.344C296.228 293.37 295.994 289.32 296.261 285.288V285.288Z" fill="black"/>
<path id="Vector_23" d="M301.598 255.85L302.295 257.702C302.295 257.702 302.991 269.988 302.755 271.15C302.519 272.312 303.688 276.459 303.688 276.459C305.188 280.61 305.742 285.043 305.311 289.435L305.541 295.923C305.541 295.923 306.468 298.471 306.008 298.937C305.547 299.403 302.047 298.524 302.047 298.524C302.047 298.524 302.513 293.658 300.866 290.644C299.219 287.63 298.316 279.98 298.316 279.98C298.316 279.98 295.996 275.344 295.996 273.492C295.996 271.64 292.283 256.569 292.283 256.569L301.598 255.85Z" fill="#BE6F72"/>
<path id="Vector_24" d="M283.498 255.62C283.498 255.62 283.735 247.274 284.679 244.726C285.16 243.535 285.506 242.295 285.712 241.027C285.712 241.027 299.756 243.564 300.919 242.638C300.919 242.638 301.149 245.882 301.385 246.112C301.621 246.342 302.566 252.14 302.312 254.924C302.058 257.708 302.312 257.702 302.312 257.702C302.312 257.702 292.796 259.094 292.566 257.702C292.336 256.31 291.639 256.316 291.639 256.316C291.639 256.316 283.038 256.056 283.498 255.62Z" fill="#3F3D56"/>
<g id="Group" opacity="0.1">
<path id="Vector_25" opacity="0.1" d="M291.155 255.62C291.155 255.62 285.287 255.46 283.516 255.142C283.516 255.443 283.516 255.62 283.516 255.62C283.056 256.08 291.639 256.316 291.639 256.316C291.756 256.326 291.867 256.372 291.958 256.445C291.645 255.62 291.155 255.62 291.155 255.62Z" fill="black"/>
<path id="Vector_26" opacity="0.1" d="M301.368 246.112C301.132 245.882 300.901 242.638 300.901 242.638C300.781 242.712 300.646 242.761 300.506 242.779C300.588 243.758 300.748 245.262 300.901 245.416C301.055 245.569 302.082 251.444 301.828 254.228C301.574 257.012 301.828 257.006 301.828 257.006C301.828 257.006 294.301 258.109 292.477 257.372C292.477 257.472 292.53 257.584 292.548 257.702C292.778 259.094 302.294 257.702 302.294 257.702C302.294 257.702 302.058 257.702 302.294 254.924C302.531 252.146 301.598 246.348 301.368 246.112Z" fill="black"/>
</g>
<path id="Vector_27" d="M293.723 218.413C293.923 218.86 294.226 219.252 294.608 219.557C294.854 219.74 295.139 219.863 295.441 219.917C294.921 220.218 294.355 220.442 293.835 220.743C293.018 221.292 292.23 221.882 291.474 222.513C290.701 223.134 289.754 223.5 288.764 223.562C289.112 223.094 289.329 222.543 289.396 221.965C289.462 221.386 289.375 220.8 289.142 220.265C288.929 219.915 288.789 219.526 288.729 219.121C288.729 218.454 289.319 217.941 289.868 217.587C290.311 217.287 290.765 216.998 291.226 216.709C291.586 216.484 292.129 216.013 292.584 216.03C293.038 216.048 293.091 216.449 293.174 216.862C293.291 217.4 293.475 217.921 293.723 218.413V218.413Z" fill="#BE6F72"/>
<path id="Vector_28" d="M299.16 232.091C302.107 232.091 304.496 229.704 304.496 226.759C304.496 223.815 302.107 221.427 299.16 221.427C296.212 221.427 293.823 223.815 293.823 226.759C293.823 229.704 296.212 232.091 299.16 232.091Z" fill="#BE6F72"/>
<path id="Vector_29" d="M306.698 302.441C306.698 302.907 305.772 304.063 305.772 304.063C303.887 304.294 301.974 304.055 300.205 303.367C299.738 303.137 300.435 301.745 300.435 301.745L300.488 301.633C300.701 301.086 300.998 300.577 301.368 300.123C301.828 299.662 302.106 297.763 302.106 297.763C303.546 295.404 306.102 298.784 306.102 298.784C306.102 298.784 306.427 300.553 306.598 301.627C306.657 302.01 306.698 302.323 306.698 302.441Z" fill="#205FCE"/>
<path id="Vector_30" opacity="0.1" d="M306.698 302.441C306.698 302.907 305.772 304.063 305.772 304.063C303.887 304.294 301.974 304.055 300.205 303.367C299.738 303.137 300.435 301.745 300.435 301.745L300.488 301.633C302.069 302.366 303.799 302.722 305.541 302.671L306.598 301.615C306.657 302.01 306.698 302.323 306.698 302.441Z" fill="black"/>
<path id="Vector_31" d="M284.278 226.057C283.132 227.149 282.943 228.877 282.825 230.452L282.648 232.758C282.584 233.379 282.571 234.004 282.607 234.628C282.607 235.011 282.701 235.4 282.737 235.807C282.772 236.214 282.784 236.727 282.79 237.193V240.603C282.734 241.306 282.864 242.012 283.168 242.649C283.33 242.958 283.602 243.194 283.929 243.312C284.257 243.43 284.617 243.421 284.939 243.286C285.306 243.004 285.564 242.604 285.671 242.154C286.247 240.771 286.643 239.32 286.851 237.836C286.899 237.323 286.905 236.81 286.952 236.297C286.999 235.784 287.088 235.247 287.164 234.728C287.495 232.557 287.642 230.363 287.79 228.175C287.831 227.526 288.416 224.972 287.566 224.689C287.152 224.553 286.297 224.978 285.901 225.12C285.302 225.32 284.75 225.639 284.278 226.057V226.057Z" fill="#BE6F72"/>
<path id="Vector_32" opacity="0.1" d="M284.278 226.057C283.132 227.149 282.943 228.877 282.825 230.452L282.648 232.758C282.584 233.379 282.571 234.004 282.607 234.628C282.607 235.011 282.701 235.4 282.737 235.807C282.772 236.214 282.784 236.727 282.79 237.193V240.603C282.734 241.306 282.864 242.012 283.168 242.649C283.33 242.958 283.602 243.194 283.929 243.312C284.257 243.43 284.617 243.421 284.939 243.286C285.306 243.004 285.564 242.604 285.671 242.154C286.247 240.771 286.643 239.32 286.851 237.836C286.899 237.323 286.905 236.81 286.952 236.297C286.999 235.784 287.088 235.247 287.164 234.728C287.495 232.557 287.642 230.363 287.79 228.175C287.831 227.526 288.416 224.972 287.566 224.689C287.152 224.553 286.297 224.978 285.901 225.12C285.302 225.32 284.75 225.639 284.278 226.057V226.057Z" fill="black"/>
<path id="Vector_33" d="M295.098 218.991C295.098 218.991 291.155 222.005 288.835 222.701C288.835 222.701 287.459 224.27 287.223 224.648C286.987 225.025 286.515 229.189 286.043 230.121C285.57 231.053 284.419 233.135 286.043 235.217C286.043 235.217 286.503 237.305 286.273 238.001C286.043 238.698 285.199 241.246 285.966 241.364C286.733 241.482 289.059 243.098 291.143 242.638C293.227 242.177 301.007 244.407 301.007 244.407C301.007 244.407 302.294 232.463 303.227 230.351L301.137 229.655C301.137 229.655 295.34 226.181 298.817 220.849C298.811 220.849 295.553 220.153 295.098 218.991Z" fill="#205FCE"/>
<path id="Vector_34" d="M280.7 232.953L285.494 236.344C285.555 236.389 285.628 236.413 285.703 236.413C285.779 236.413 285.852 236.389 285.913 236.344L287.212 235.371C287.252 235.337 287.284 235.294 287.306 235.246C287.328 235.198 287.339 235.146 287.339 235.094C287.339 235.041 287.328 234.989 287.306 234.941C287.284 234.893 287.252 234.851 287.212 234.816L283.522 231.543C283.474 231.499 283.415 231.47 283.352 231.457C283.288 231.445 283.223 231.45 283.162 231.472L280.795 232.321C280.732 232.343 280.677 232.381 280.635 232.432C280.593 232.482 280.566 232.543 280.556 232.608C280.546 232.673 280.555 232.74 280.58 232.801C280.605 232.861 280.647 232.914 280.7 232.953V232.953Z" fill="#3F3D56"/>
<path id="Vector_35" d="M282.312 243.168C281.973 241.993 281.804 240.776 281.81 239.553L281.739 237.919C281.668 237.285 281.726 236.643 281.91 236.031C282.092 235.612 282.365 235.239 282.709 234.938C283.053 234.637 283.46 234.416 283.9 234.291C284.781 234.047 285.702 233.981 286.609 234.097C286.732 234.097 286.852 234.13 286.958 234.191C287.05 234.277 287.116 234.387 287.147 234.51C287.281 234.771 287.359 235.058 287.378 235.351C287.396 235.644 287.354 235.938 287.253 236.214C287.116 236.439 286.93 236.631 286.71 236.775C286.066 237.235 285.317 237.541 284.709 238.043C284.585 238.126 284.49 238.246 284.437 238.385C284.408 238.507 284.408 238.634 284.437 238.757C284.513 239.081 284.615 239.399 284.744 239.706C284.796 239.861 284.888 239.999 285.01 240.107C285.122 240.202 285.269 240.237 285.387 240.325C285.641 240.532 286.173 240.803 286.143 241.128C286.055 242.307 285.346 243.629 285.069 244.796C284.537 247.079 282.654 244.165 282.312 243.168Z" fill="#BE6F72"/>
<g id="Group_2" opacity="0.1">
<path id="Vector_36" opacity="0.1" d="M289.768 242.638H289.638C290.139 242.735 290.654 242.735 291.155 242.638H291.303C290.794 242.563 290.277 242.563 289.768 242.638Z" fill="black"/>
<path id="Vector_37" opacity="0.1" d="M301.946 230.003C301.114 231.873 299.886 242.001 299.668 244.012C300.482 244.224 301.019 244.378 301.019 244.378C301.019 244.378 302.294 232.463 303.227 230.351L301.946 230.003Z" fill="black"/>
</g>
<path id="Vector_38" d="M299.343 226.924C299.386 227.157 299.476 227.379 299.607 227.577C299.738 227.774 299.907 227.944 300.104 228.075C300.597 228.487 301.05 228.945 301.456 229.443C302.039 230.263 302.492 231.168 302.796 232.127C303.239 233.327 303.612 234.552 303.912 235.796C300.96 237.164 297.607 237.099 294.467 238.001C293.114 238.358 291.888 239.083 290.925 240.095C290.444 240.604 290.079 241.211 289.854 241.873C289.629 242.536 289.549 243.239 289.62 243.935C289.625 244.016 289.649 244.095 289.691 244.165C289.742 244.223 289.806 244.268 289.878 244.297C289.95 244.325 290.027 244.337 290.104 244.33C290.889 244.329 291.651 244.068 292.271 243.587C292.883 243.109 293.44 242.563 293.929 241.959C294.234 241.564 294.643 241.261 295.11 241.086C296.816 240.567 298.652 240.597 300.423 240.567C303.072 240.516 305.715 240.307 308.339 239.942C308.435 239.953 308.532 239.943 308.623 239.911C308.715 239.88 308.797 239.828 308.865 239.76C308.934 239.692 308.986 239.609 309.017 239.518C309.049 239.427 309.059 239.33 309.048 239.234C309.308 235.754 308.015 232.357 306.686 229.13C306.155 227.837 305.608 226.549 305.045 225.267C304.582 224.014 303.903 222.853 303.038 221.834C302.71 221.464 302.308 221.167 301.858 220.961C301.35 220.778 300.815 220.679 300.275 220.666C299.416 220.551 298.547 220.535 297.684 220.619C297.546 221.053 297.463 221.503 297.436 221.958C297.483 223.551 298.18 225.043 298.865 226.482C298.953 226.7 299.207 226.712 299.343 226.924Z" fill="#BE6F72"/>
<path id="Vector_39" opacity="0.1" d="M289.892 229.909C289.492 230.592 289.288 231.371 289.301 232.162C289.303 232.475 289.353 232.785 289.449 233.082C289.61 233.499 289.863 233.875 290.189 234.181C290.515 234.487 290.906 234.717 291.332 234.852" stroke="black" stroke-miterlimit="10"/>
<g id="head">
<path id="Vector_40" d="M294.75 203.809C293.202 203.806 291.684 204.237 290.37 205.053C288.634 204.653 286.814 204.852 285.206 205.618C283.597 206.384 282.296 207.671 281.515 209.271C280.541 210.191 279.771 211.304 279.253 212.539C278.736 213.775 278.483 215.104 278.51 216.443C278.51 221.374 281.834 225.367 285.93 225.367C288.882 225.367 291.468 223.267 292.654 220.23C293.336 220.41 294.039 220.501 294.744 220.501C296.959 220.501 299.084 219.622 300.651 218.057C302.217 216.491 303.097 214.369 303.097 212.155C303.097 209.941 302.217 207.819 300.651 206.253C299.084 204.688 296.959 203.809 294.744 203.809H294.75Z" fill="#3F3D56"/>
<path id="Vector_41" opacity="0.1" d="M293.723 218.413C293.923 218.86 294.226 219.252 294.608 219.557C294.854 219.74 295.139 219.863 295.441 219.917C294.921 220.218 294.355 220.442 293.835 220.743C293.018 221.292 292.23 221.882 291.474 222.513C290.701 223.134 289.754 223.5 288.764 223.562C289.112 223.094 289.329 222.543 289.396 221.965C289.462 221.386 289.375 220.8 289.142 220.265C288.929 219.915 288.789 219.526 288.729 219.121C288.729 218.454 289.319 217.941 289.868 217.587C290.311 217.287 290.765 216.998 291.226 216.709C291.586 216.484 292.129 216.013 292.584 216.03C293.038 216.048 293.091 216.449 293.174 216.862C293.291 217.4 293.475 217.921 293.723 218.413V218.413Z" fill="black"/>
<path id="Vector_42" d="M288.487 220.843C291.369 220.843 293.705 218.509 293.705 215.629C293.705 212.749 291.369 210.415 288.487 210.415C285.605 210.415 283.268 212.749 283.268 215.629C283.268 218.509 285.605 220.843 288.487 220.843Z" fill="#BE6F72"/>
<path id="Vector_43" d="M292.896 210.533C292.606 210.532 292.317 210.578 292.04 210.669C291.267 209.489 289.449 208.675 287.318 208.675C284.496 208.675 282.212 210.132 282.212 211.925C282.212 213.718 284.496 215.169 287.318 215.169C288.374 215.181 289.421 214.959 290.382 214.52C290.598 214.967 290.93 215.348 291.343 215.623C291.757 215.898 292.236 216.058 292.732 216.085C293.228 216.112 293.722 216.006 294.164 215.778C294.605 215.55 294.976 215.208 295.24 214.787C295.504 214.367 295.651 213.883 295.664 213.387C295.678 212.891 295.558 212.4 295.318 211.966C295.077 211.532 294.725 211.17 294.297 210.918C293.869 210.666 293.381 210.533 292.885 210.533H292.896Z" fill="#3F3D56"/>
<path id="Vector_44" opacity="0.1" d="M293.127 215.399C292.603 215.399 292.091 215.251 291.648 214.973C291.205 214.694 290.85 214.296 290.624 213.824C289.663 214.263 288.617 214.484 287.56 214.473C284.744 214.473 282.459 213.022 282.459 211.229C282.45 211.121 282.45 211.012 282.459 210.905C282.291 211.219 282.202 211.569 282.2 211.925C282.2 213.694 284.484 215.169 287.306 215.169C288.363 215.18 289.409 214.959 290.37 214.52C290.624 215.047 291.038 215.48 291.553 215.758C292.068 216.036 292.658 216.144 293.238 216.067C293.818 215.991 294.359 215.734 294.784 215.332C295.21 214.93 295.497 214.405 295.606 213.83C295.382 214.297 295.03 214.692 294.592 214.97C294.153 215.247 293.646 215.396 293.127 215.399V215.399Z" fill="black"/>
<path id="Vector_45" opacity="0.1" d="M281.521 210.639C282.302 209.04 283.603 207.752 285.211 206.986C286.82 206.22 288.64 206.021 290.376 206.422C291.59 205.673 292.977 205.247 294.403 205.186C295.829 205.125 297.247 205.43 298.522 206.073C299.796 206.715 300.884 207.674 301.682 208.856C302.48 210.039 302.961 211.406 303.08 212.827C303.08 212.597 303.08 212.367 303.08 212.131C303.076 210.648 302.677 209.192 301.923 207.914C301.169 206.636 300.088 205.582 298.79 204.861C297.493 204.14 296.027 203.778 294.542 203.811C293.058 203.845 291.609 204.274 290.346 205.053C288.61 204.653 286.79 204.852 285.182 205.618C283.574 206.384 282.273 207.671 281.491 209.271C280.518 210.191 279.747 211.304 279.23 212.539C278.712 213.775 278.459 215.104 278.486 216.443C278.486 216.679 278.486 216.909 278.486 217.139C278.602 214.658 279.693 212.322 281.521 210.639Z" fill="black"/>
</g>
<path id="Vector_46" d="M123.177 218.844C123.185 217.939 122.98 217.045 122.579 216.234C122.178 215.422 121.592 214.716 120.869 214.172C120.86 212.573 120.286 211.028 119.248 209.811C118.21 208.594 116.775 207.782 115.196 207.519C114.952 206.356 114.406 205.279 113.613 204.393C112.821 203.508 111.809 202.847 110.68 202.476V202.476C110.406 202.39 110.125 202.325 109.841 202.281H109.759H109.611H109.493H109.363H109.204H108.844C107.275 202.318 105.77 202.907 104.595 203.945C103.419 204.984 102.649 206.404 102.421 207.955C100.349 207.478 98.454 208.097 98.1058 209.406C98.0185 209.754 98.0391 210.12 98.1648 210.456C98.519 211.471 99.6701 212.444 101.211 212.922L101.412 212.981L101.713 213.057H101.778C101.449 213.757 101.279 214.52 101.282 215.293C101.277 216.241 101.534 217.172 102.024 217.984C102.515 218.796 103.22 219.456 104.062 219.894L103.926 219.976C103.734 220.151 103.582 220.364 103.478 220.601C103.105 221.26 102.814 221.961 102.61 222.689C102.462 223.315 102.439 223.963 102.256 224.583C101.913 225.721 101.04 226.683 100.939 227.868C100.892 228.399 100.981 229.048 100.603 229.39C100.51 229.471 100.409 229.542 100.302 229.602C100.04 229.787 99.8174 230.022 99.6465 230.292C99.5333 230.538 99.3774 230.762 99.186 230.953C98.8437 231.207 98.2828 231.183 98.1176 231.578C97.9523 231.973 98.3832 232.439 98.2828 232.87C98.1825 233.301 97.8165 233.383 97.5508 233.625C97.2418 233.957 97.0242 234.363 96.9192 234.805C96.3606 234.911 95.7854 234.893 95.2345 234.753C94.6835 234.612 94.1704 234.352 93.7314 233.991C93.8819 234.371 93.9927 234.767 94.062 235.17C93.5483 234.779 92.9656 234.486 92.3441 234.309C91.6449 233.991 91.0211 233.529 90.5141 232.953L91.4941 232.817L87.167 226.217L85.8859 225.951L87.0312 228.151C86.9355 228.195 86.8508 228.259 86.7833 228.34C86.7159 228.421 86.6675 228.515 86.6416 228.617C86.5806 228.862 86.5666 229.116 86.6003 229.366C86.659 229.962 86.7576 230.553 86.8954 231.136L87.226 232.681C87.2555 232.823 87.2909 232.97 87.3323 233.112C86.9004 233.091 86.468 233.138 86.0512 233.253C85.1931 232.934 84.2989 232.723 83.3889 232.622C83.1941 232.582 82.9933 232.582 82.7985 232.622C82.578 232.727 82.3857 232.882 82.2377 233.076C81.4924 233.94 80.8303 234.872 80.2601 235.86C77.8988 239.907 74.8232 243.44 71.9129 247.097C69.9058 247.911 67.8809 248.683 65.8561 249.456L61.4995 251.119C60.65 251.504 59.7286 251.705 58.7958 251.709C58.3826 251.709 57.869 251.621 57.6151 251.975C57.5012 252.159 57.4119 252.357 57.3495 252.564L56.9008 252.612C56.6943 251.903 56.3379 251.248 55.8559 250.689C55.7497 250.707 55.6494 250.751 55.564 250.817C55.4786 250.883 55.4106 250.968 55.366 251.066C55.2597 251.261 55.1948 251.473 55.0708 251.656C54.8406 251.998 54.4333 252.163 54.144 252.452C53.8547 252.741 53.6717 253.19 53.353 253.485C52.9183 253.806 52.4078 254.009 51.8712 254.074C51.0623 254.263 50.2821 254.559 49.5512 254.953C49.2838 255.121 48.9961 255.253 48.6953 255.348C48.3627 255.413 48.0221 255.425 47.6858 255.384L45.3835 255.213C45.1767 255.187 44.9671 255.197 44.7637 255.242C44.5325 255.336 44.3372 255.501 44.2057 255.713C44.0741 255.925 44.0132 256.173 44.0317 256.422C44.0614 256.672 44.1416 256.913 44.2674 257.131C44.3932 257.349 44.5621 257.539 44.7637 257.69C45.1619 257.984 45.6043 258.213 46.0742 258.368C48.0666 259.143 50.1202 259.751 52.2136 260.185V260.651C53.6783 261.389 55.296 261.773 56.9363 261.772C57.0579 261.78 57.1796 261.758 57.2905 261.707C57.4412 261.594 57.5461 261.431 57.5856 261.247C58.0753 259.784 58.3845 258.266 58.5065 256.729V256.729C58.7946 256.709 59.0768 256.637 59.3389 256.516C60.1299 256.298 60.921 256.841 61.7415 256.929C62.751 257.041 63.6837 256.451 64.64 256.092L65.0533 255.956C64.781 256.306 64.4588 256.614 64.0969 256.87C63.7014 257.153 63.2587 257.366 62.875 257.661C62.5501 257.955 62.2027 258.223 61.836 258.463C61.5773 258.582 61.3111 258.685 61.039 258.769C60.6366 258.919 60.254 259.117 59.8997 259.359C59.5857 259.546 59.3207 259.805 59.1264 260.114C59.0294 260.272 58.9727 260.452 58.9614 260.637C58.9501 260.822 58.9844 261.007 59.0614 261.176C59.1431 261.314 59.2533 261.432 59.3846 261.524C59.516 261.615 59.6654 261.678 59.823 261.707C60.134 261.754 60.4505 261.754 60.7616 261.707C62.0131 261.612 63.2587 261.5 64.5043 261.388C65.0308 261.355 65.5539 261.28 66.0686 261.164C66.3402 261.099 66.6117 261.011 66.8833 260.934C67.3493 260.817 67.8259 260.745 68.306 260.722C68.4451 260.711 68.585 260.725 68.7192 260.763C69.0085 260.857 69.2151 261.152 69.5102 261.211C69.7103 261.237 69.9136 261.21 70.1006 261.135C71.0104 260.939 71.9385 260.84 72.8692 260.84C73.2765 260.84 73.7547 260.739 73.9436 260.362C74.1325 259.984 73.7901 259.377 73.6366 258.876C73.5579 258.555 73.5143 258.227 73.5068 257.896C73.4355 257.084 73.2027 256.294 72.822 255.573C72.6167 255.236 72.4447 254.881 72.3084 254.511C74.0937 253.833 75.8016 252.967 77.4029 251.927C78.2802 251.293 79.2637 250.819 80.3074 250.529C81.5399 250.383 82.7898 250.528 83.9556 250.954C86.7938 251.776 89.5861 252.749 92.3205 253.868C93.6252 254.405 94.9239 254.971 96.2698 255.378C96.6624 255.904 97.1367 256.364 97.6748 256.74C98.6045 257.263 99.6486 257.549 100.715 257.572C102.138 257.702 103.566 257.755 104.995 257.731C106.088 257.779 107.179 257.577 108.183 257.142C108.422 257.022 108.646 256.873 108.85 256.699C109.235 256.732 109.623 256.68 109.986 256.546C110.35 256.412 110.679 256.201 110.951 255.926C111.725 255.264 112.283 254.384 112.551 253.402C112.899 252.057 112.634 250.453 113.46 249.379C113.679 249.084 113.968 248.848 114.186 248.554C114.451 248.15 114.583 247.673 114.564 247.191C114.574 247.172 114.586 247.154 114.6 247.138C114.781 246.705 114.9 246.248 114.954 245.781C115.055 245.415 115.183 245.056 115.337 244.708C115.757 243.667 116.124 242.606 116.435 241.529C116.648 240.812 116.818 240.083 116.943 239.346C117.032 238.756 117.085 238.167 117.132 237.577C117.195 236.647 117.375 235.73 117.669 234.846C118.408 232.742 118.826 230.539 118.909 228.311V228.181C119.997 228.056 120.998 227.529 121.717 226.704C122.436 225.879 122.82 224.815 122.793 223.722C122.794 223.065 122.655 222.416 122.386 221.816C122.908 220.913 123.181 219.887 123.177 218.844ZM102.055 244.484C102.12 244.714 102.197 244.938 102.273 245.162C101.925 244.826 101.589 244.478 101.24 244.136C101.376 244.183 101.518 244.224 101.648 244.277C101.784 244.333 101.915 244.402 102.037 244.484H102.055ZM100.384 243.351C98.3419 241.582 95.9806 240.207 93.8908 238.491C95.0301 239.051 96.14 239.706 97.238 240.331C98.5406 241.075 99.861 241.788 101.199 242.472C100.979 242.815 100.697 243.113 100.367 243.351H100.384ZM101.252 238.892L101.353 238.792C101.353 239.045 101.353 239.275 101.353 239.494L100.804 239.305C100.955 239.176 101.099 239.038 101.234 238.892H101.252ZM83.2885 243.67C84.1264 242.722 84.8551 241.683 85.4609 240.573C86.2697 241.983 87.5861 243.003 88.7018 244.189C86.9013 243.959 85.0949 243.764 83.2885 243.67Z" fill="url(#paint1_linear)"/>
<path id="Vector_47" d="M86.1929 226.494L87.4798 226.753L91.8659 233.236L89.9355 233.495L86.1929 226.494Z" fill="#2F2E41"/>
<path id="Vector_48" d="M54.9882 252.789C55.3373 253.932 55.7673 255.05 56.2751 256.133C57.7284 255.826 59.1586 255.418 60.555 254.912C60.2796 254.503 59.9821 254.109 59.6636 253.732C59.3171 253.356 58.9076 253.042 58.4534 252.806C57.9695 252.697 57.4673 252.697 56.9835 252.806C56.3223 252.788 55.6552 252.8 54.9882 252.789Z" fill="#FBBEBE"/>
<path id="Vector_49" d="M58.4593 254.517C58.1102 254.361 57.7989 254.131 57.5463 253.844C57.2937 253.557 57.1058 253.219 56.9953 252.853C56.7705 252.119 56.3899 251.441 55.8796 250.866C55.7721 250.88 55.6702 250.922 55.5834 250.987C55.4966 251.052 55.4279 251.138 55.3837 251.237C55.2775 251.426 55.2125 251.638 55.0945 251.827C54.8583 252.163 54.4451 252.328 54.1499 252.612C53.8548 252.895 53.6777 253.337 53.3589 253.626C52.9206 253.949 52.406 254.152 51.8654 254.216C51.0439 254.401 50.2501 254.693 49.504 255.083C49.231 255.246 48.9397 255.377 48.6363 255.472C48.2997 255.523 47.9575 255.523 47.6209 255.472L45.295 255.307C45.0995 255.275 44.9001 255.275 44.7047 255.307C44.4673 255.393 44.2655 255.556 44.1317 255.77C43.9979 255.983 43.9398 256.236 43.9668 256.487C43.9943 256.736 44.0743 256.976 44.2015 257.191C44.3287 257.407 44.5002 257.593 44.7047 257.737C45.1087 258.027 45.5546 258.254 46.027 258.41C48.0521 259.172 50.1373 259.764 52.2609 260.179V260.639C53.7399 261.365 55.3655 261.742 57.013 261.742C57.134 261.75 57.2551 261.729 57.3672 261.683C57.518 261.571 57.6229 261.407 57.6624 261.223C58.2219 259.594 58.5498 257.894 58.6364 256.174C58.6744 255.737 58.6404 255.297 58.5361 254.871C58.4062 254.452 58.843 254.629 58.4416 254.464" fill="#2F2E41"/>
<path id="Vector_50" d="M103.064 245.758C96.1694 246.171 89.357 244.153 82.4502 243.941C81.5929 243.885 80.7319 243.938 79.8882 244.1C79.0096 244.338 78.1588 244.669 77.3497 245.085C73.6484 246.808 69.8172 248.235 65.9918 249.657L61.5939 251.29C60.7385 251.677 59.8111 251.878 58.8725 251.88C58.4533 251.88 57.9398 251.792 57.6918 252.14C56.9775 253.202 57.314 254.753 57.7863 255.944C57.9398 256.328 58.1995 256.746 58.6127 256.788C58.9027 256.768 59.1867 256.696 59.451 256.575C60.2479 256.363 61.0449 256.9 61.8713 256.988C62.8867 257.094 63.8312 256.516 64.7935 256.162C66.3873 255.573 68.1229 255.573 69.7994 255.313C72.6035 254.847 75.2068 253.544 77.639 252.063C78.5233 251.433 79.5128 250.966 80.5611 250.683C81.803 250.537 83.0618 250.68 84.2389 251.102C87.0994 251.908 89.9152 252.865 92.6747 253.968C94.1092 254.592 95.5798 255.13 97.0785 255.579C100.35 256.434 103.809 256.227 106.955 254.989C108.059 254.552 109.257 253.809 109.316 252.594C109.357 251.916 108.826 251.32 108.478 250.736C108.253 250.364 108.023 249.993 107.781 249.633C106.601 247.923 105.16 245.634 103.064 245.758Z" fill="#2F2E41"/>
<path id="Vector_51" opacity="0.1" d="M103.064 245.758C96.1694 246.171 89.357 244.153 82.4502 243.941C81.5929 243.885 80.7319 243.938 79.8882 244.1C79.0096 244.338 78.1588 244.669 77.3497 245.085C73.6484 246.808 69.8172 248.235 65.9918 249.657L61.5939 251.29C60.7385 251.677 59.8111 251.878 58.8725 251.88C58.4533 251.88 57.9398 251.792 57.6918 252.14C56.9775 253.202 57.314 254.753 57.7863 255.944C57.9398 256.328 58.1995 256.746 58.6127 256.788C58.9027 256.768 59.1867 256.696 59.451 256.575C60.2479 256.363 61.0449 256.9 61.8713 256.988C62.8867 257.094 63.8312 256.516 64.7935 256.162C66.3873 255.573 68.1229 255.573 69.7994 255.313C72.6035 254.847 75.2068 253.544 77.639 252.063C78.5233 251.433 79.5128 250.966 80.5611 250.683C81.803 250.537 83.0618 250.68 84.2389 251.102C87.0994 251.908 89.9152 252.865 92.6747 253.968C94.1092 254.592 95.5798 255.13 97.0785 255.579C100.35 256.434 103.809 256.227 106.955 254.989C108.059 254.552 109.257 253.809 109.316 252.594C109.357 251.916 108.826 251.32 108.478 250.736C108.253 250.364 108.023 249.993 107.781 249.633C106.601 247.923 105.16 245.634 103.064 245.758Z" fill="black"/>
<path id="Vector_52" d="M68.2292 253.107C69.3076 253.473 70.3958 253.811 71.4938 254.121C72.0841 253.113 73.2648 252.411 73.5186 251.255C73.5334 251.205 73.5334 251.152 73.5186 251.102C73.4895 251.053 73.4463 251.014 73.3946 250.989C72.6054 250.556 71.731 250.301 70.8326 250.24C70.1242 250.199 69.7995 250.936 69.4807 251.455C69.3568 251.686 68.5185 253.219 68.2292 253.107Z" fill="#FBBEBE"/>
<path id="Vector_53" d="M69.7405 252.387C69.4179 252.333 69.1101 252.212 68.8367 252.032C68.5634 251.852 68.3304 251.618 68.1525 251.343C68.0049 251.078 67.8396 250.718 67.5327 250.754C67.2257 250.789 67.1253 251.108 67.0604 251.385C66.8561 252.43 66.5577 253.454 66.169 254.446C65.7795 255.443 65.1191 256.311 64.2623 256.953C63.8608 257.23 63.4181 257.436 63.0226 257.731C62.6951 258.021 62.3458 258.285 61.9777 258.522C61.7172 258.638 61.4489 258.737 61.1748 258.817C60.7715 258.968 60.3872 259.166 60.0296 259.406C59.7112 259.589 59.4418 259.846 59.2445 260.156C59.1469 260.31 59.0903 260.487 59.08 260.67C59.0696 260.853 59.1059 261.035 59.1854 261.2C59.268 261.335 59.3787 261.452 59.51 261.541C59.6414 261.631 59.7903 261.691 59.947 261.719C60.262 261.766 60.5823 261.766 60.8974 261.719C62.1548 261.63 63.4122 261.518 64.6696 261.406C65.1996 261.372 65.7264 261.299 66.2457 261.188L67.0663 260.964C67.5351 260.84 68.0162 260.769 68.5008 260.751C68.6419 260.738 68.7841 260.752 68.9199 260.793C69.2092 260.887 69.4158 261.176 69.7169 261.235C69.9169 261.254 70.1187 261.228 70.3072 261.158C71.2248 260.962 72.161 260.865 73.0995 260.869C73.5127 260.869 73.9968 260.763 74.1857 260.397C74.4218 259.937 74.0322 259.424 73.8728 258.929C73.7966 258.614 73.753 258.291 73.7429 257.967C73.6724 257.165 73.4373 256.386 73.0522 255.679C72.7335 255.089 72.2966 254.44 72.5209 253.815C72.6325 253.616 72.7047 253.398 72.7334 253.172C72.6449 252.157 70.319 252.517 69.7405 252.387Z" fill="#2F2E41"/>
<path id="Vector_54" d="M92.7278 234.704C91.5042 234.168 90.5237 233.197 89.9769 231.979C89.8648 231.72 89.7703 231.443 89.6581 231.183C89.298 230.304 88.7358 229.522 88.017 228.9C87.9412 228.82 87.8497 228.756 87.7481 228.712C87.6466 228.669 87.5372 228.646 87.4267 228.647C87.317 228.68 87.2181 228.741 87.1403 228.825C87.0625 228.909 87.0085 229.013 86.9839 229.124C86.918 229.364 86.9019 229.615 86.9367 229.862C86.9967 230.442 87.0953 231.017 87.2319 231.584L87.5684 233.106C87.6129 233.339 87.6822 233.566 87.775 233.784C87.9189 234.039 88.1091 234.265 88.3358 234.451C88.6428 234.734 88.9556 235.005 89.2685 235.276C89.4494 235.434 89.6474 235.57 89.8588 235.683C90.1886 235.841 90.5413 235.944 90.9037 235.99C92.3123 236.173 93.6564 236.691 94.8235 237.5C94.8235 237.5 94.8235 236.48 94.8235 236.368C94.8086 236.071 94.7058 235.786 94.5283 235.548C93.9876 235.154 93.3764 234.868 92.7278 234.704V234.704Z" fill="#FBBEBE"/>
<path id="Vector_55" opacity="0.1" d="M92.7278 234.704C91.5042 234.168 90.5237 233.197 89.9769 231.979C89.8648 231.72 89.7703 231.443 89.6581 231.183C89.298 230.304 88.7358 229.522 88.017 228.9C87.9412 228.82 87.8497 228.756 87.7481 228.712C87.6466 228.669 87.5372 228.646 87.4267 228.647C87.317 228.68 87.2181 228.741 87.1403 228.825C87.0625 228.909 87.0085 229.013 86.9839 229.124C86.918 229.364 86.9019 229.615 86.9367 229.862C86.9967 230.442 87.0953 231.017 87.2319 231.584L87.5684 233.106C87.6129 233.339 87.6822 233.566 87.775 233.784C87.9189 234.039 88.1091 234.265 88.3358 234.451C88.6428 234.734 88.9556 235.005 89.2685 235.276C89.4494 235.434 89.6474 235.57 89.8588 235.683C90.1886 235.841 90.5413 235.944 90.9037 235.99C92.3123 236.173 93.6564 236.691 94.8235 237.5C94.8235 237.5 94.8235 236.48 94.8235 236.368C94.8086 236.071 94.7058 235.786 94.5283 235.548C93.9876 235.154 93.3764 234.868 92.7278 234.704V234.704Z" fill="black"/>
<path id="Vector_56" d="M106.766 223.061C107.692 223.061 108.442 222.306 108.442 221.374C108.442 220.443 107.692 219.687 106.766 219.687C105.84 219.687 105.089 220.443 105.089 221.374C105.089 222.306 105.84 223.061 106.766 223.061Z" fill="#2F2E41"/>
<path id="Vector_57" d="M105.727 220.36C105.278 220.252 104.805 220.319 104.405 220.548C104.211 220.72 104.056 220.931 103.95 221.168C103.575 221.813 103.281 222.502 103.076 223.22C102.929 223.81 102.905 224.477 102.716 225.084C102.374 226.205 101.494 227.154 101.394 228.322C101.347 228.847 101.435 229.461 101.052 229.815C100.958 229.896 100.857 229.969 100.75 230.033C100.485 230.21 100.259 230.441 100.089 230.711C99.9737 230.952 99.8157 231.169 99.6229 231.354C99.2805 231.608 98.7138 231.584 98.5485 231.944C98.3832 232.304 98.8142 232.793 98.7138 233.218C98.6134 233.643 98.2415 233.725 97.9759 233.961C97.663 234.291 97.443 234.698 97.3383 235.141C96.7773 235.249 96.1994 235.234 95.6449 235.096C95.0903 234.959 94.5724 234.702 94.127 234.344C94.5165 235.527 94.6865 236.77 94.6287 238.013C94.6581 238.212 94.6471 238.415 94.5964 238.609C94.5457 238.804 94.4563 238.986 94.3336 239.146C95.6653 239.245 96.9841 239.474 98.2711 239.83C98.8286 240.016 99.4314 240.016 99.9889 239.83C100.287 239.67 100.555 239.458 100.78 239.205C101.488 238.485 102.232 237.701 102.403 236.704C102.446 236.141 102.456 235.575 102.433 235.011C102.5 234.311 102.645 233.621 102.864 232.952C103.238 231.566 103.488 230.148 103.614 228.718C103.69 227.833 104.458 227.125 104.859 226.358C105.615 224.866 106.394 223.315 106.447 221.64C106.471 221.097 106.282 220.419 105.727 220.36Z" fill="#2F2E41"/>
<path id="Vector_58" opacity="0.1" d="M105.727 220.36C105.278 220.252 104.805 220.319 104.405 220.548C104.211 220.72 104.056 220.931 103.95 221.168C103.575 221.813 103.281 222.502 103.076 223.22C102.929 223.81 102.905 224.477 102.716 225.084C102.374 226.205 101.494 227.154 101.394 228.322C101.347 228.847 101.435 229.461 101.052 229.815C100.958 229.896 100.857 229.969 100.75 230.033C100.485 230.21 100.259 230.441 100.089 230.711C99.9737 230.952 99.8157 231.169 99.6229 231.354C99.2805 231.608 98.7138 231.584 98.5485 231.944C98.3832 232.304 98.8142 232.793 98.7138 233.218C98.6134 233.643 98.2415 233.725 97.9759 233.961C97.663 234.291 97.443 234.698 97.3383 235.141C96.7773 235.249 96.1994 235.234 95.6449 235.096C95.0903 234.959 94.5724 234.702 94.127 234.344C94.5165 235.527 94.6865 236.77 94.6287 238.013C94.6581 238.212 94.6471 238.415 94.5964 238.609C94.5457 238.804 94.4563 238.986 94.3336 239.146C95.6653 239.245 96.9841 239.474 98.2711 239.83C98.8286 240.016 99.4314 240.016 99.9889 239.83C100.287 239.67 100.555 239.458 100.78 239.205C101.488 238.485 102.232 237.701 102.403 236.704C102.446 236.141 102.456 235.575 102.433 235.011C102.5 234.311 102.645 233.621 102.864 232.952C103.238 231.566 103.488 230.148 103.614 228.718C103.69 227.833 104.458 227.125 104.859 226.358C105.615 224.866 106.394 223.315 106.447 221.64C106.471 221.097 106.282 220.419 105.727 220.36Z" fill="black"/>
<path id="Vector_59" d="M104.157 247.209C102.722 246.525 101.671 245.256 100.508 244.165C98.2946 242.083 95.585 240.626 93.2532 238.662C91.7066 237.37 90.3016 235.866 88.631 234.781C87.1345 233.833 85.4399 233.242 83.6781 233.053C83.4839 233.008 83.282 233.008 83.0878 233.053C82.8647 233.148 82.671 233.3 82.527 233.495C81.7741 234.344 81.104 235.262 80.5258 236.238C77.5741 241.251 73.3769 245.463 69.8998 250.123C69.82 250.219 69.7616 250.332 69.7286 250.453C69.714 250.634 69.7596 250.814 69.8585 250.966L70.5669 252.346C70.9624 253.125 71.6 254.027 72.4501 253.874C72.8329 253.763 73.1753 253.544 73.4359 253.243L76.6119 250.205L79.9413 247.026C81.8894 245.168 83.8729 243.263 85.148 240.88C86.1398 242.602 87.9049 243.729 89.1091 245.304C89.5696 245.893 89.9474 246.56 90.3606 247.197C91.0159 248.211 91.7656 249.167 92.5094 250.146L96.3288 255.012C96.8129 255.699 97.412 256.298 98.0998 256.782C99.0416 257.294 100.092 257.575 101.164 257.602C102.598 257.729 104.039 257.781 105.479 257.755C106.582 257.799 107.681 257.598 108.696 257.165C109.202 256.943 109.635 256.581 109.943 256.123C110.251 255.664 110.423 255.128 110.438 254.576C110.379 254.004 110.191 253.454 109.889 252.966C108.507 250.506 106.725 248.43 104.157 247.209Z" fill="#2F2E41"/>
<path id="Vector_60" d="M107.799 223.84C108.513 223.84 109.092 223.259 109.092 222.542C109.092 221.825 108.513 221.244 107.799 221.244C107.085 221.244 106.506 221.825 106.506 222.542C106.506 223.259 107.085 223.84 107.799 223.84Z" fill="#E8E8F0"/>
<path id="Vector_61" d="M107.516 221.569C107.804 222.148 107.855 222.817 107.657 223.433C107.453 224.038 107.174 224.614 106.825 225.149C106.525 225.7 106.162 226.215 105.745 226.683C107.74 226.777 109.67 225.998 111.424 225.055C112.84 224.294 114.251 223.356 115.007 221.934C114.781 221.988 114.547 221.994 114.319 221.951C114.092 221.908 113.875 221.818 113.685 221.687C113.304 221.425 112.964 221.109 112.675 220.749L111.677 219.628C111.451 219.382 111.253 219.111 111.087 218.82C110.868 218.423 110.775 217.968 110.821 217.517C110.424 217.931 109.98 218.299 109.499 218.614C108.785 219.08 108 219.416 107.279 219.876C107.032 220.041 106.465 220.301 106.612 220.631C106.76 220.961 107.315 221.215 107.516 221.569Z" fill="#FBBEBE"/>
<path id="Vector_62" opacity="0.1" d="M107.516 221.569C107.804 222.148 107.855 222.817 107.657 223.433C107.453 224.038 107.174 224.614 106.825 225.149C106.525 225.7 106.162 226.215 105.745 226.683C107.74 226.777 109.67 225.998 111.424 225.055C112.84 224.294 114.251 223.356 115.007 221.934C114.781 221.988 114.547 221.994 114.319 221.951C114.092 221.908 113.875 221.818 113.685 221.687C113.304 221.425 112.964 221.109 112.675 220.749L111.677 219.628C111.451 219.382 111.253 219.111 111.087 218.82C110.868 218.423 110.775 217.968 110.821 217.517C110.424 217.931 109.98 218.299 109.499 218.614C108.785 219.08 108 219.416 107.279 219.876C107.032 220.041 106.465 220.301 106.612 220.631C106.76 220.961 107.315 221.215 107.516 221.569Z" fill="black"/>
<path id="Vector_63" d="M107.539 221.763C107.337 222.048 107.229 222.388 107.229 222.737C107.229 223.085 107.337 223.425 107.539 223.71C107.598 223.781 107.811 224.223 107.899 224.229C107.943 224.225 107.985 224.213 108.024 224.193C108.062 224.172 108.096 224.145 108.124 224.111C108.578 223.638 109 223.136 109.387 222.607C109.782 222.079 110.351 221.708 110.993 221.557C111.788 221.527 112.569 221.77 113.206 222.247C113.503 222.382 113.763 222.584 113.968 222.837C114.11 223.097 114.195 223.385 114.216 223.68C114.409 225.461 114.484 227.252 114.44 229.042C114.474 230.335 114.389 231.628 114.186 232.905C114.056 233.56 113.868 234.203 113.779 234.869C113.71 235.457 113.682 236.048 113.696 236.639V239.104C113.681 239.557 113.712 240.009 113.791 240.455C113.909 240.992 114.163 241.493 114.334 242.018C114.511 242.621 114.631 243.239 114.694 243.864L115.031 246.412C115.137 247.215 115.219 248.094 114.729 248.772C114.511 249.061 114.222 249.297 113.997 249.586C113.165 250.671 113.407 252.222 113.082 253.549C112.809 254.521 112.245 255.385 111.465 256.027C111.187 256.302 110.852 256.512 110.484 256.644C110.116 256.775 109.723 256.824 109.334 256.788C108.295 256.593 107.675 255.514 107.392 254.493C107.108 253.473 107.008 252.364 106.394 251.503C105.831 250.851 105.165 250.295 104.422 249.857C103.671 249.412 103.12 248.697 102.882 247.858C102.817 247.486 102.882 247.103 102.817 246.725C102.761 246.25 102.579 245.799 102.289 245.418C102 245.037 101.613 244.741 101.17 244.56C100.638 244.354 99.989 244.277 99.682 243.794C100.442 243.318 100.996 242.575 101.235 241.712C101.469 240.854 101.596 239.97 101.612 239.081L101.789 236.132C101.872 234.805 101.908 233.495 102.492 232.304C102.752 231.773 103.082 231.272 103.348 230.747C103.708 230.009 104.014 229.246 104.263 228.464C104.688 227.249 105.113 226.034 105.491 224.807C105.638 224.211 105.865 223.638 106.164 223.102C106.483 222.548 106.943 221.881 107.539 221.763Z" fill="#E8E8F0"/>
<path id="Vector_64" d="M100.957 241.015H101.742L101.907 239.836C101.929 239.599 101.985 239.367 102.073 239.146C102.202 238.911 102.355 238.69 102.527 238.485C103.295 237.394 103.242 235.949 103.431 234.622C103.773 232.868 104.353 231.17 105.154 229.573L106.677 226.181C106.816 225.904 106.927 225.613 107.008 225.314C107.072 224.984 107.103 224.648 107.102 224.311C107.102 223.786 107.268 221.875 107.285 221.362C107.285 221.168 106.854 221.274 106.766 221.103C106.577 220.725 106.317 221.746 105.957 221.97C105.619 222.228 105.373 222.588 105.255 222.996C104.924 223.845 104.723 224.766 104.416 225.609C104.149 226.489 103.659 227.286 102.994 227.921C102.681 228.193 102.321 228.411 102.026 228.706C101.081 229.638 100.987 231.118 100.957 232.451C100.933 233.265 100.78 241.015 100.957 241.015Z" fill="#2F2E41"/>
<path id="Vector_65" d="M112.256 220.354C111.891 220.544 111.575 220.817 111.332 221.149C111.09 221.481 110.927 221.865 110.857 222.271C110.722 223.084 110.484 223.877 110.148 224.63C109.192 226.293 106.754 226.777 106.075 228.576C105.904 229.181 105.813 229.805 105.804 230.434C105.686 231.726 105.261 232.97 105.131 234.256C105.066 235.257 105.089 236.262 105.201 237.258L106.057 247.415C106.221 248.909 106.136 250.42 105.804 251.886C106.681 252.011 107.576 251.863 108.366 251.461C109.163 251.096 109.895 250.594 110.668 250.17C111.99 249.438 113.454 248.925 114.617 247.952C114.826 247.786 115.005 247.587 115.149 247.362C115.326 246.936 115.446 246.487 115.503 246.029C115.603 245.67 115.732 245.319 115.886 244.979C116.312 243.954 116.683 242.906 116.996 241.841C117.209 241.137 117.379 240.42 117.504 239.694C117.598 239.105 117.652 238.515 117.699 237.925C117.76 237.01 117.943 236.108 118.242 235.241C118.983 233.17 119.403 230.998 119.487 228.8C119.51 228.484 119.488 228.166 119.423 227.856C119.293 227.477 119.118 227.115 118.903 226.777C118.549 226.11 118.313 225.379 118.006 224.701C117.169 223.207 115.969 221.947 114.517 221.038C113.832 220.572 113.029 220.076 112.256 220.354Z" fill="#2F2E41"/>
<path id="Vector_66" d="M94.4221 236.928C93.8162 236.61 93.2675 236.193 92.7987 235.695C92.5862 235.447 92.4091 235.17 92.2084 234.922C91.6609 234.334 90.9494 233.923 90.1658 233.743C89.3907 233.573 88.598 233.495 87.8045 233.513C87.2719 233.477 86.7374 233.541 86.2283 233.701C85.9745 233.786 85.7459 233.933 85.5634 234.129C85.3809 234.325 85.2503 234.563 85.1835 234.822C85.162 235.143 85.2242 235.464 85.3638 235.753C85.5035 236.042 85.716 236.291 85.9804 236.474C86.4413 236.852 86.9856 237.115 87.5684 237.24C88.0429 237.325 88.5218 237.382 89.0029 237.412C91.8247 237.706 94.3454 239.24 96.8189 240.638C98.9913 241.873 101.207 243.021 103.466 244.083C103.553 243.408 103.591 242.728 103.578 242.048C103.578 241.54 103.537 240.762 103.059 240.461C102.379 240.177 101.67 239.965 100.945 239.83C99.4885 239.354 98.0663 238.779 96.689 238.108C95.9097 237.771 95.16 237.358 94.4221 236.928Z" fill="#FBBEBE"/>
<path id="Vector_67" d="M106.766 220.991C109.544 220.991 111.796 218.728 111.796 215.936C111.796 213.144 109.544 210.881 106.766 210.881C103.988 210.881 101.736 213.144 101.736 215.936C101.736 218.728 103.988 220.991 106.766 220.991Z" fill="#FBBEBE"/>
<path id="Vector_68" d="M113.69 226.081C113.289 226.644 112.961 227.257 112.716 227.904C112.126 229.178 111.123 230.263 110.633 231.614C110.143 232.964 110.137 234.698 109.127 235.801C108.925 235.97 108.772 236.19 108.684 236.438C108.68 236.593 108.665 236.747 108.637 236.899C108.49 237.3 107.834 237.317 107.71 237.73C107.675 237.848 107.71 237.978 107.651 238.096C107.551 238.361 107.197 238.403 106.967 238.562C106.477 238.892 106.577 239.659 106.229 240.137C106.077 240.315 105.88 240.449 105.66 240.527C105.439 240.605 105.201 240.623 104.971 240.579C104.513 240.486 104.073 240.32 103.667 240.089C103.521 240.01 103.36 239.959 103.194 239.942C102.998 239.949 102.809 240.015 102.651 240.131C102.206 240.458 101.849 240.891 101.612 241.39C101.375 241.89 101.266 242.44 101.294 242.991C101.361 244.097 101.625 245.181 102.073 246.194C102.123 246.37 102.209 246.533 102.327 246.672C102.502 246.81 102.715 246.892 102.938 246.909C103.161 246.926 103.384 246.876 103.578 246.766C103.963 246.538 104.373 246.354 104.8 246.218C105.579 246.076 106.341 246.613 107.132 246.566C107.708 246.481 108.25 246.243 108.702 245.876C109.497 245.402 110.21 244.805 110.816 244.106C111.158 243.652 111.406 243.139 111.713 242.655C112.103 242.067 112.527 241.502 112.982 240.962L115.886 237.423C116.175 237.087 116.436 236.728 116.666 236.35C116.924 235.834 117.122 235.289 117.256 234.728C117.566 233.793 117.765 232.825 117.846 231.844C117.864 231.032 117.793 230.221 117.634 229.425C117.546 228.633 117.347 227.857 117.043 227.119C116.412 225.786 114.877 224.701 113.69 226.081Z" fill="#2F2E41"/>
<path id="Vector_69" d="M123.797 219.487C123.801 218.591 123.593 217.706 123.188 216.907C122.784 216.107 122.195 215.414 121.471 214.886C121.447 213.294 120.86 211.762 119.812 210.563C118.765 209.363 117.326 208.573 115.751 208.333C115.448 206.824 114.621 205.47 113.416 204.51C112.212 203.551 110.706 203.047 109.166 203.089C107.626 203.131 106.151 203.715 105 204.738C103.848 205.761 103.096 207.158 102.876 208.681C100.786 208.209 98.8732 208.822 98.5249 210.108C98.1766 211.394 99.6524 213.057 101.854 213.647C102.549 213.842 103.272 213.914 103.991 213.86C104.504 214.614 105.169 215.254 105.944 215.736C106.718 216.219 107.586 216.534 108.49 216.661C108.757 217.877 109.359 218.995 110.226 219.889C111.094 220.782 112.193 221.417 113.401 221.722C113.738 222.528 114.257 223.245 114.918 223.816C114.918 223.975 114.918 224.14 114.918 224.306C114.918 224.864 115.028 225.417 115.242 225.933C115.456 226.449 115.77 226.918 116.165 227.313C116.56 227.708 117.029 228.021 117.546 228.235C118.062 228.448 118.616 228.558 119.175 228.558C119.733 228.558 120.287 228.448 120.803 228.235C121.32 228.021 121.789 227.708 122.184 227.313C122.579 226.918 122.893 226.449 123.107 225.933C123.321 225.417 123.431 224.864 123.431 224.306C123.431 223.657 123.292 223.015 123.024 222.424C123.543 221.533 123.81 220.518 123.797 219.487V219.487Z" fill="#F86D70"/>
<path id="Vector_70" opacity="0.1" d="M99.9417 210.38C100.29 209.094 102.203 208.48 104.292 208.952C104.54 207.404 105.328 205.994 106.517 204.971C107.705 203.947 109.217 203.377 110.786 203.361H111.217C110.616 203.178 109.992 203.084 109.363 203.083C107.795 203.1 106.282 203.67 105.094 204.694C103.906 205.717 103.118 207.127 102.87 208.675C100.78 208.203 98.8673 208.817 98.519 210.102C98.1707 211.388 99.6465 213.052 101.848 213.641C102.261 213.756 102.685 213.829 103.112 213.86C101.004 213.228 99.5934 211.695 99.9417 210.38Z" fill="black"/>
<path id="Vector_71" opacity="0.1" d="M116.311 224.553C116.303 224.392 116.303 224.231 116.311 224.07C115.647 223.502 115.127 222.784 114.794 221.976C113.585 221.672 112.484 221.037 111.616 220.142C110.748 219.247 110.148 218.127 109.883 216.909C108.978 216.784 108.109 216.471 107.334 215.989C106.558 215.507 105.892 214.868 105.379 214.113C104.959 214.148 104.538 214.136 104.121 214.078C104.638 214.773 105.288 215.358 106.033 215.8C106.777 216.243 107.602 216.533 108.46 216.655C108.728 217.871 109.329 218.989 110.197 219.883C111.064 220.776 112.164 221.411 113.372 221.716C113.708 222.522 114.227 223.239 114.889 223.81C114.889 223.969 114.889 224.134 114.889 224.3C114.87 225.443 115.304 226.547 116.097 227.372C116.89 228.196 117.977 228.673 119.121 228.7C118.287 228.376 117.571 227.806 117.069 227.065C116.566 226.324 116.302 225.448 116.311 224.553V224.553Z" fill="black"/>
<path id="Vector_72" d="M109.072 217.791C109.412 217.533 109.408 216.956 109.063 216.502C108.718 216.048 108.163 215.889 107.823 216.147C107.482 216.405 107.487 216.983 107.832 217.437C108.177 217.891 108.732 218.049 109.072 217.791Z" fill="#FBBEBE"/>
</g>
<defs>
<linearGradient id="paint0_linear" x1="293.823" y1="304.175" x2="293.823" y2="202.653" gradientUnits="userSpaceOnUse">
<stop stop-color="#808080" stop-opacity="0.25"/>
<stop offset="0.54" stop-color="#808080" stop-opacity="0.12"/>
<stop offset="1" stop-color="#808080" stop-opacity="0.1"/>
</linearGradient>
<linearGradient id="paint1_linear" x1="36682.8" y1="39507.5" x2="36682.8" y2="33499.4" gradientUnits="userSpaceOnUse">
<stop stop-color="#808080" stop-opacity="0.25"/>
<stop offset="0.54" stop-color="#808080" stop-opacity="0.12"/>
<stop offset="1" stop-color="#808080" stop-opacity="0.1"/>
</linearGradient>
</defs>
</svg>
