<svg width="607" height="386" viewBox="0 0 607 386" fill="none" xmlns="http://www.w3.org/2000/svg">
<g id="wind_turbine" clip-path="url(#clip0)">
<g id="background">
<g id="Group 1">
<path id="Vector" d="M304.864 380.767H285.152L291.413 148.534H298.603L304.864 380.767Z" fill="white"/>
<path id="Vector_2" d="M451 280.645L437.597 283.002L441.895 123.529H446.761L451 280.645Z" fill="white"/>
<path id="Vector_3" d="M146.884 280.645H133.545L137.785 123.529H142.645L146.884 280.645Z" fill="white"/>
<path id="Vector_4" d="M590.387 323.57C585.847 340.14 575.991 354.76 562.335 365.181C548.679 375.602 531.98 381.248 514.804 381.25H115.229C96.7617 381.238 78.6588 376.107 62.9306 366.425C47.2024 356.744 34.4646 342.89 26.1318 326.404C26.1318 326.404 84.0462 246.267 234.454 298.623C359.324 342.088 416.92 300.985 432.896 285.773C434.625 284.133 436.669 282.861 438.903 282.032C441.137 281.204 443.516 280.837 445.896 280.953C476.495 282.402 582.492 289.822 590.403 323.559L590.387 323.57Z" fill="white"/>
<path id="Vector_5" opacity="0.1" d="M110.963 385.995C146.691 385.995 175.653 382.594 175.653 378.399C175.653 374.204 146.691 370.804 110.963 370.804C75.2359 370.804 46.2731 374.204 46.2731 378.399C46.2731 382.594 75.2359 385.995 110.963 385.995Z" fill="#27AE60"/>
</g>
</g>
<g id="turbine-right">
<rect id="Rectangle 1" x="325.112" y="135.768" width="170" height="170" transform="rotate(-53.5 325.112 135.768)" fill="#C4C4C4" fill-opacity="0.01"/>
<g id="blade">
<path id="Vector_6" d="M427.366 97.4269C428.856 99.0509 431.677 102.92 428.833 106.572C427.761 107.898 426.248 108.772 424.622 109.004C422.996 109.237 421.39 108.808 420.154 107.813L384.945 80.1034L373.463 71.0722C373.463 71.0722 371.578 66.8261 387.497 75.7669L387.548 75.8051L425.864 96.2759C426.425 96.5747 426.931 96.9629 427.366 97.4269Z" fill="white"/>
<path id="Vector_7" d="M429.023 102.488L424.98 107.951L435.864 116.005L439.907 110.542L429.023 102.488Z" fill="white"/>
<path id="Vector_8" d="M436.886 109.217L433.774 113.423L438.551 116.958L441.663 112.752L436.886 109.217Z" fill="white"/>
<path id="Vector_9" d="M387.559 75.7998C385.629 77.3286 385.056 78.9247 384.95 80.1066L373.467 71.0754C373.467 71.0754 371.583 66.8293 387.501 75.7701L387.559 75.7998Z" fill="#27AE60"/>
<path id="Vector_10" d="M432.275 104.894L439.899 110.536L435.856 116L428.387 110.473C428.967 108.221 430.359 106.224 432.275 104.894Z" fill="#27AE60"/>
</g>
<g id="blade_2">
<path id="Vector_11" d="M435.354 142.103C436.015 140.001 437.956 135.623 442.54 136.26C444.224 136.525 445.738 137.399 446.752 138.691C447.766 139.982 448.198 141.587 447.954 143.156L441.561 187.502L439.481 201.962C439.481 201.962 436.746 205.717 436.53 187.461L436.537 187.397L435.108 143.979C435.086 143.344 435.169 142.712 435.354 142.103Z" fill="white"/>
<path id="Vector_12" d="M438.908 138.138L445.661 138.907L447.194 125.454L440.441 124.685L438.908 138.138Z" fill="white"/>
<path id="Vector_13" d="M440.804 127.963L446.002 128.555L446.675 122.651L441.477 122.058L440.804 127.963Z" fill="white"/>
<path id="Vector_14" d="M436.527 187.39C438.816 188.298 440.485 187.995 441.562 187.497L439.482 201.956C439.482 201.956 436.747 205.712 436.531 187.455L436.527 187.39Z" fill="#27AE60"/>
<path id="Vector_15" d="M439.366 134.118L440.44 124.695L447.193 125.464L446.141 134.696C443.901 135.319 441.476 135.112 439.366 134.118Z" fill="#27AE60"/>
</g>
<g id="blade_3">
<path id="Vector_16" d="M468.723 115.277C466.572 115.755 461.81 116.263 460.07 111.975C459.458 110.384 459.457 108.636 460.069 107.112C460.681 105.588 461.854 104.411 463.335 103.838L504.936 87.2013L518.499 81.7729C518.499 81.7729 523.118 82.2636 507.416 91.5791L507.357 91.6047L470.471 114.551C469.932 114.888 469.343 115.132 468.723 115.277Z" fill="white"/>
<path id="Vector_17" d="M463.512 114.181L460.802 107.948L448.385 113.347L451.095 119.58L463.512 114.181Z" fill="white"/>
<path id="Vector_18" d="M453.752 117.626L451.666 112.829L446.216 115.198L448.302 119.996L453.752 117.626Z" fill="white"/>
<path id="Vector_19" d="M507.356 91.6165C506.997 89.1805 505.902 87.8866 504.931 87.2034L518.494 81.7749C518.494 81.7749 523.113 82.2657 507.411 91.5812L507.356 91.6165Z" fill="#27AE60"/>
<path id="Vector_20" d="M459.802 115.794L451.104 119.576L448.394 113.343L456.915 109.638C458.575 111.267 459.608 113.47 459.802 115.794Z" fill="#27AE60"/>
</g>
<path id="Vector_21" d="M448.019 120.974C449.662 118.754 449.194 115.623 446.974 113.981C444.754 112.338 441.623 112.806 439.981 115.026C438.338 117.246 438.806 120.377 441.026 122.019C443.246 123.662 446.377 123.194 448.019 120.974Z" fill="#27AE60"/>
</g>
<g id="turbine-left">
<rect id="Rectangle 1_2" x="33.8625" y="67.5657" width="170" height="170" transform="rotate(-17 33.8625 67.5657)" fill="#C4C4C4" fill-opacity="0.01"/>
<g id="blade_4">
<path id="Vector_22" d="M138.866 97.5677C139.098 99.7593 139.063 104.548 134.606 105.792C132.956 106.22 131.219 106.022 129.774 105.242C128.329 104.462 127.292 103.162 126.891 101.627L115.07 58.4095L111.212 44.3197C111.212 44.3197 112.223 39.7853 119.701 56.4412L119.719 56.5026L138.343 95.7491C138.616 96.3228 138.792 96.9361 138.866 97.5677Z" fill="white"/>
<path id="Vector_23" d="M137.187 102.621L130.687 104.609L134.646 117.557L141.146 115.57L137.187 102.621Z" fill="white"/>
<path id="Vector_24" d="M139.506 112.709L134.503 114.238L136.24 119.921L141.243 118.392L139.506 112.709Z" fill="white"/>
<path id="Vector_25" d="M119.731 56.5045C117.27 56.5854 115.861 57.5278 115.072 58.4146L111.214 44.3248C111.214 44.3248 112.224 39.7904 119.702 56.4462L119.731 56.5045Z" fill="#27AE60"/>
<path id="Vector_26" d="M138.37 106.49L141.143 115.56L134.643 117.548L131.927 108.662C133.733 107.197 136.039 106.42 138.37 106.49Z" fill="#27AE60"/>
</g>
<g id="blade_5">
<path id="Vector_27" d="M118.712 138.232C120.495 136.936 124.659 134.571 127.965 137.809C129.161 139.025 129.858 140.627 129.905 142.269C129.952 143.911 129.344 145.458 128.215 146.574L96.6982 178.419L86.4252 188.805C86.4252 188.805 81.993 190.197 92.6784 175.393L92.7222 175.346L117.399 139.594C117.759 139.071 118.202 138.612 118.712 138.232Z" fill="white"/>
<path id="Vector_28" d="M123.928 137.159L128.899 141.795L138.134 131.892L133.163 127.256L123.928 137.159Z" fill="white"/>
<path id="Vector_29" d="M131.505 130.108L135.331 133.676L139.384 129.33L135.558 125.762L131.505 130.108Z" fill="white"/>
<path id="Vector_30" d="M92.718 175.335C94.0185 177.426 95.5395 178.175 96.7018 178.415L86.4288 188.801C86.4288 188.801 81.9966 190.193 92.682 175.389L92.718 175.335Z" fill="#27AE60"/>
<path id="Vector_31" d="M126.687 134.2L133.156 127.264L138.127 131.899L131.79 138.695C129.618 137.863 127.792 136.254 126.687 134.2Z" fill="#27AE60"/>
</g>
<g id="blade_6">
<path id="Vector_32" d="M161.494 136.517C159.48 135.622 155.35 133.198 156.502 128.715C156.956 127.072 157.996 125.667 159.394 124.805C160.792 123.944 162.436 123.696 163.966 124.116L207.304 135.488L221.435 139.192C221.435 139.192 224.857 142.334 206.693 140.483L206.631 140.468L163.33 136.973C162.697 136.923 162.078 136.769 161.494 136.517Z" fill="white"/>
<path id="Vector_33" d="M157.957 132.536L159.486 125.914L146.293 122.868L144.764 129.49L157.957 132.536Z" fill="white"/>
<path id="Vector_34" d="M148.062 129.5L149.239 124.403L143.448 123.066L142.271 128.164L148.062 129.5Z" fill="white"/>
<path id="Vector_35" d="M206.623 140.477C207.783 138.305 207.672 136.613 207.299 135.487L221.43 139.191C221.43 139.191 224.851 142.333 206.688 140.481L206.623 140.477Z" fill="#27AE60"/>
<path id="Vector_36" d="M154.015 131.626L144.773 129.493L146.302 122.87L155.356 124.96C155.721 127.257 155.241 129.643 154.015 131.626Z" fill="#27AE60"/>
</g>
<path id="Vector_37" d="M141.462 128.782C144.103 127.974 145.589 125.179 144.782 122.538C143.974 119.897 141.179 118.411 138.538 119.218C135.897 120.026 134.411 122.821 135.218 125.462C136.026 128.103 138.821 129.589 141.462 128.782Z" fill="#27AE60"/>
</g>
<g id="turbine-center">
<rect id="Rectangle 1_3" x="400.918" y="49.2914" width="200" height="200" transform="rotate(93.5 400.918 49.2914)" fill="#C4C4C4" fill-opacity="0.01"/>
<g id="blade_7">
<path id="Vector_38" d="M324.595 152.64C322.084 151.993 316.821 149.982 317.287 144.557C317.495 142.563 318.429 140.73 319.884 139.459C321.339 138.188 323.198 137.582 325.056 137.772L377.55 142.552L394.666 144.106C394.666 144.106 399.246 147.087 377.811 148.466L377.736 148.461L326.814 152.814C326.07 152.878 325.321 152.82 324.595 152.64Z" fill="white"/>
<path id="Vector_39" d="M319.717 148.709L320.206 140.727L304.306 139.755L303.818 147.736L319.717 148.709Z" fill="white"/>
<path id="Vector_40" d="M307.646 147.107L308.022 140.964L301.044 140.537L300.668 146.68L307.646 147.107Z" fill="white"/>
<path id="Vector_41" d="M377.729 148.473C378.653 145.728 378.196 143.786 377.544 142.552L394.66 144.105C394.66 144.105 399.24 147.087 377.805 148.465L377.729 148.473Z" fill="#27AE60"/>
<path id="Vector_42" d="M314.967 148.418L303.829 147.737L304.317 139.755L315.229 140.423C316.098 143.017 316.004 145.878 314.967 148.418Z" fill="#27AE60"/>
</g>
<g id="blade_8">
<path id="Vector_43" d="M288.087 113.678C288.782 116.176 289.672 121.739 284.741 124.048C282.909 124.865 280.856 124.973 279.027 124.348C277.199 123.724 275.744 122.417 274.98 120.713L252.873 72.8618L245.66 57.2621C245.66 57.2621 245.952 51.8044 257.863 69.6787L257.897 69.7464L287.127 111.669C287.556 112.282 287.879 112.959 288.087 113.678Z" fill="white"/>
<path id="Vector_44" d="M287.121 119.868L279.965 123.436L287.072 137.692L294.229 134.124L287.121 119.868Z" fill="white"/>
<path id="Vector_45" d="M291.769 131.122L286.261 133.869L289.381 140.125L294.889 137.379L291.769 131.122Z" fill="white"/>
<path id="Vector_46" d="M257.911 69.7464C255.071 70.3181 253.619 71.6853 252.876 72.8674L245.663 57.2677C245.663 57.2677 245.955 51.81 257.866 69.6843L257.911 69.7464Z" fill="#27AE60"/>
<path id="Vector_47" d="M289.245 124.127L294.223 134.113L287.067 137.681L282.189 127.898C284.001 125.848 286.526 124.498 289.245 124.127Z" fill="#27AE60"/>
</g>
<g id="blade_9">
<path id="Vector_48" d="M272.351 161.529C274.167 159.678 278.54 156.126 283.005 159.242C284.629 160.419 285.749 162.144 286.122 164.039C286.495 165.935 286.091 167.848 284.997 169.362L254.61 212.433L244.707 226.479C244.707 226.479 239.835 228.955 249.359 209.703L249.4 209.64L271.091 163.364C271.408 162.687 271.833 162.068 272.351 161.529Z" fill="white"/>
<path id="Vector_49" d="M278.195 159.271L284.863 163.684L293.655 150.401L286.987 145.987L278.195 159.271Z" fill="white"/>
<path id="Vector_50" d="M285.617 149.618L290.75 153.015L294.609 147.185L289.476 143.788L285.617 149.618Z" fill="white"/>
<path id="Vector_51" d="M249.393 209.628C251.308 211.801 253.219 212.376 254.614 212.428L244.711 226.474C244.711 226.474 239.838 228.95 249.362 209.697L249.393 209.628Z" fill="#27AE60"/>
<path id="Vector_52" d="M280.822 155.302L286.981 145.997L293.649 150.41L287.615 159.526C284.934 158.982 282.502 157.47 280.822 155.302Z" fill="#27AE60"/>
</g>
<path id="Vector_53" d="M289.129 142.641C288.93 145.884 291.398 148.673 294.641 148.871C297.883 149.07 300.673 146.602 300.871 143.359C301.07 140.116 298.602 137.327 295.359 137.129C292.116 136.93 289.327 139.398 289.129 142.641Z" fill="#27AE60"/>
</g>
<g id="lady">
<path id="Vector_54" d="M143.345 371.621C143.345 371.621 139.148 371.128 136.416 369.089L136.209 368.925C136.374 368.677 136.494 368.402 136.564 368.113C136.271 367.541 136.116 366.908 136.113 366.266C136.122 365.662 135.999 365.065 135.753 364.514V361.531C135.753 361.531 134.845 360.565 134.755 358.107C134.665 355.65 134.575 343.537 134.575 343.537C134.435 342.903 134.404 342.25 134.484 341.605C134.575 340.204 134.575 339.679 134.575 339.679C134.278 338.864 134.185 337.99 134.304 337.131C134.575 336.069 133.667 334.849 133.667 334.849L135.026 328.182C135.026 328.182 135.779 305.151 133.588 298.209V298.166C133.588 298.166 133.588 298.108 133.588 298.081C133.773 293.602 131.057 286.144 132.595 280.969C134.134 275.794 134.315 274.647 134.315 274.647C134.315 274.647 127.534 257.62 125.825 253.586C124.642 250.805 123.416 247.747 122.206 246.006C122.1 245.854 121.994 245.711 121.888 245.577C121.83 245.502 121.771 245.428 121.713 245.364C122.083 244.747 122.306 244.054 122.366 243.337C122.461 242.084 122.281 240.64 123.193 239.754C123.542 239.469 123.916 239.218 124.313 239.005C125.012 238.545 125.568 237.899 125.92 237.139C126.271 236.38 126.404 235.537 126.303 234.706C126.112 233.384 125.353 232.286 124.488 231.219C124.784 229.6 124.666 227.932 124.145 226.371C123.623 224.81 122.716 223.407 121.506 222.291C121.506 222.127 121.506 221.957 121.506 221.792C121.531 220.576 121.158 219.385 120.445 218.401L120.7 218.581C120.556 218.454 120.418 218.332 120.27 218.209C120.06 217.998 119.821 217.819 119.559 217.679C117.547 216.303 115.195 215.509 112.762 215.382C110.328 215.256 107.907 215.802 105.763 216.962C104.69 217.536 103.768 218.357 103.073 219.356C101.657 221.543 102.012 224.372 101.28 226.856C100.569 229.228 98.8921 231.192 97.502 233.262C96.1118 235.332 94.9498 237.785 95.4751 240.205C95.8518 241.962 97.104 243.538 97.0669 245.338C97.0046 246.28 96.6154 247.171 95.9663 247.857C95.3173 248.544 94.4492 248.981 93.5119 249.096H93.4642C93.2886 249.123 93.1112 249.137 92.9336 249.138C94.6209 250.3 96.7167 250.73 98.7701 251.001C98.7277 251.16 98.6852 251.32 98.6481 251.484C96.9873 257.753 95.507 265.714 95.507 265.714C95.507 265.714 96.4992 273.782 94.4192 280.104C92.3393 286.425 92.6099 299.414 92.6099 299.414C92.6099 299.414 98.3987 296.425 98.7595 298.352C99.1203 300.279 98.7595 300.81 98.7595 300.81C98.7595 300.81 99.9427 301.409 101.333 301.94L101.275 302.71L101.02 306.16C100.922 306.883 101.033 307.62 101.338 308.283C101.837 309.249 101.338 311.882 101.338 311.882C101.338 311.882 100.914 312.147 101.338 313.379C101.763 314.61 101.004 316.361 101.004 316.361C101.004 316.361 100.473 322.943 100.404 324.323C100.335 325.703 98.595 329.679 98.595 329.679C98.595 329.679 100.134 331.606 98.595 331.871C97.0563 332.136 96.8759 334.525 96.8759 334.525C96.8759 334.525 95.0666 336.016 95.0666 336.542C95.0666 336.542 86.9272 344.795 85.0277 358.394C85.0277 358.394 83.1282 360.151 83.3988 361.818C83.5527 362.762 83.2449 363.086 82.9478 363.192C83.2821 363.235 83.6482 363.452 83.4784 364.254C83.2078 365.655 82.4862 368.643 82.4862 368.643H82.6135C81.1331 370.358 78.9683 373.229 78.6394 375.751C78.6394 375.857 78.6287 375.963 78.6075 376.069L77.7904 377.911L84.9375 381.096L85.5689 380.13C85.5689 380.13 88.7525 383.728 92.3552 384.514C92.9777 384.649 93.6125 384.718 94.2494 384.721C96.2602 384.686 98.2481 384.289 100.118 383.548C100.118 383.548 102.739 380.305 95.9527 379.689C95.9527 379.689 91.9785 375.124 92.3393 373.192C92.4754 372.379 92.5587 371.558 92.5887 370.735C92.5887 370.554 92.5887 370.377 92.5887 370.204L93.0503 370.273L93.1352 368.803C93.3336 368.554 93.4303 368.239 93.4058 367.922C93.4058 367.311 92.8752 367.221 93.4058 366.86C93.9364 366.499 93.9364 366.86 93.9364 365.984C93.9364 365.108 93.5756 365.368 94.3874 364.493C95.1992 363.617 94.2972 362.035 94.2972 362.035C94.2972 362.035 96.1967 360.629 96.1065 358.787C96.0163 356.945 102.166 345.273 103.429 344.833C104.692 344.392 104.787 342.11 104.787 342.11C104.787 342.11 106.506 342.46 107.047 342.11C107.589 341.759 109.308 339.042 109.308 339.042C109.308 339.042 116.205 321.664 116.274 315.082L116.725 313.591C116.725 313.591 119.352 317.014 118.986 319.472C118.62 321.929 120.991 323.681 120.991 323.681V331.144C121.256 332.444 121.402 333.766 121.426 335.093C121.336 336.319 122.488 337.55 122.053 338.601C121.618 339.652 122.053 341.499 122.053 341.499C122.053 341.499 121.957 343.957 122.053 344.657C122.148 345.358 121.697 353.431 124.053 356.945C124.053 356.945 125.045 359.487 124.053 361.154C123.061 362.821 124.955 364.493 124.955 364.493C124.955 364.493 123.782 366.419 124.955 367.826C125.627 368.715 125.929 369.83 125.799 370.936C125.326 372.72 124.976 375.061 125.767 376.69V376.727L125.979 379.233L132.909 378.702V377.3C132.909 377.3 137.641 378.558 142.051 377.874C144.428 377.507 146.709 376.573 148.105 374.578C148.142 374.604 150.943 369.779 143.345 371.621Z" fill="url(#paint0_linear)"/>
<path id="Vector_55" d="M146.858 374.647C145.51 376.637 143.308 377.566 141.021 377.932C136.777 378.612 132.198 377.359 132.198 377.359V378.771L125.507 379.302L125.3 376.807V376.764C124.525 375.119 124.881 372.741 125.348 370.952C125.572 370.108 125.848 369.278 126.175 368.468C126.175 368.468 131.938 363.574 133.858 367.247C134.275 368.007 134.853 368.667 135.551 369.18C138.204 371.207 142.242 371.701 142.242 371.701C149.564 369.843 146.858 374.647 146.858 374.647Z" fill="#65617D"/>
<path id="Vector_56" opacity="0.1" d="M129.041 369.843C129.041 369.843 129.041 374.387 132.357 374.302C135.673 374.217 136.119 372.492 135.068 371.324C134.355 370.496 133.739 369.59 133.232 368.622L129.041 369.843Z" fill="black"/>
<path id="Vector_57" d="M100.484 383.548C98.6783 384.285 96.7514 384.681 94.8013 384.716C94.1858 384.712 93.5723 384.644 92.9707 384.514C89.4794 383.723 86.4232 380.14 86.4232 380.14L85.813 381.106L78.9153 377.959L79.6953 376.117L79.7271 375.804C80.0454 373.293 82.136 370.432 83.5686 368.723C84.3486 367.794 84.9375 367.21 84.9375 367.21L93.236 368.431C93.236 368.431 93.2679 369.493 93.236 370.788C93.2081 371.608 93.1266 372.425 92.992 373.235C92.6471 375.156 96.4833 379.7 96.4833 379.7C103.015 380.326 100.484 383.548 100.484 383.548Z" fill="#65617D"/>
<path id="Vector_58" d="M83.887 363.261C83.747 363.309 83.5973 363.32 83.4519 363.293C83.5941 363.258 83.7412 363.247 83.887 363.261Z" fill="#444053"/>
<path id="Vector_59" opacity="0.1" d="M93.2361 368.447C93.2361 368.447 93.2679 369.509 93.2361 370.804L83.4731 369.211C83.4731 369.211 83.5209 369.026 83.5899 368.718C84.3698 367.789 84.9588 367.205 84.9588 367.205L93.2361 368.447Z" fill="black"/>
<path id="Vector_60" opacity="0.1" d="M135.535 369.158C134.06 372.571 125.284 371.764 125.284 371.764C125.328 371.489 125.344 371.21 125.332 370.931C125.556 370.087 125.832 369.257 126.159 368.447C126.159 368.447 131.922 363.553 133.842 367.226C134.259 367.986 134.837 368.645 135.535 369.158Z" fill="black"/>
<path id="Vector_61" d="M135.678 368.187C134.808 372.115 125.284 371.244 125.284 371.244C125.467 370.077 125.185 368.884 124.499 367.922C123.363 366.526 124.499 364.604 124.499 364.604C124.499 364.604 122.663 362.943 123.629 361.281C124.594 359.62 123.629 357.088 123.629 357.088C121.352 353.596 121.793 345.554 121.697 344.88C121.602 344.206 121.697 341.738 121.697 341.738C121.697 341.738 121.267 339.902 121.697 338.851C122.127 337.8 121.007 336.579 121.092 335.358C121.068 334.037 120.927 332.721 120.673 331.425V323.994C120.673 323.994 118.386 322.248 118.736 319.801C119.087 317.354 116.55 313.962 116.55 313.962L116.115 315.449C116.03 321.998 109.393 339.297 109.393 339.297C109.393 339.297 107.732 342.009 107.207 342.359C106.681 342.709 105.026 342.359 105.026 342.359C105.026 342.359 104.936 344.631 103.715 345.066C102.495 345.501 96.5523 357.12 96.6425 358.957C96.7327 360.793 94.8915 362.189 94.8915 362.189C94.8915 362.189 95.767 363.781 94.9817 364.636C94.1964 365.491 94.5413 365.246 94.5413 366.122C94.5413 366.998 94.5413 366.653 94.0107 366.993C93.4801 367.332 94.0107 367.433 94.0107 368.054C94.0356 368.368 93.9408 368.679 93.7454 368.925L93.6658 370.395L83.4413 368.755C83.4413 368.755 84.1417 365.783 84.4017 364.381C84.5555 363.564 84.2 363.346 83.8711 363.32C84.1629 363.214 84.46 362.89 84.3115 361.956C84.0462 360.294 85.9032 358.548 85.9032 358.548C87.7391 345.002 95.5972 336.786 95.5972 336.786C95.5972 336.255 97.3429 334.78 97.3429 334.78C97.3429 334.78 97.518 332.418 99.0036 332.158C100.489 331.897 99.0036 329.971 99.0036 329.971C99.0036 329.971 100.664 326.043 100.749 324.663C100.834 323.283 101.328 316.701 101.328 316.701C101.328 316.701 102.06 314.955 101.651 313.734C101.243 312.513 101.651 312.248 101.651 312.248C101.651 312.248 102.145 309.626 101.651 308.665C101.359 308.008 101.252 307.282 101.344 306.569L101.593 303.129L101.954 298.007C101.954 298.007 129.125 293.315 132.118 297.068C132.442 297.531 132.681 298.049 132.824 298.596C134.946 305.496 134.214 328.431 134.214 328.431L132.903 335.072C132.903 335.072 133.779 336.298 133.519 337.343C133.402 338.198 133.491 339.068 133.779 339.88C133.779 339.88 133.779 340.411 133.689 341.802C133.612 342.443 133.643 343.092 133.779 343.723C133.779 343.723 133.864 355.777 133.954 358.224C134.044 360.671 134.914 361.632 134.914 361.632V364.604C135.15 365.156 135.267 365.751 135.259 366.35C135.255 366.987 135.398 367.615 135.678 368.187Z" fill="#444053"/>
<path id="Vector_62" opacity="0.1" d="M94.8013 384.726C94.1858 384.722 93.5723 384.655 92.9707 384.524C89.4794 383.734 86.4232 380.151 86.4232 380.151L85.813 381.117L78.9153 377.969L79.6953 376.117L79.7271 375.804L86.8583 379.44C86.8583 379.44 92.5516 382.168 94.8013 384.726Z" fill="black"/>
<path id="Vector_63" opacity="0.1" d="M141.011 377.932C136.766 378.612 132.187 377.359 132.187 377.359V378.771L125.496 379.302L125.289 376.807C127.412 376.844 130.823 376.881 132.309 376.764C135.249 376.759 138.176 377.152 141.011 377.932Z" fill="black"/>
<path id="Vector_64" opacity="0.1" d="M87.304 361.011C87.6526 360.979 88.004 361.025 88.3333 361.144C88.6778 361.349 89.0043 361.584 89.3096 361.844C89.5387 361.966 89.7555 362.11 89.9569 362.274C90.2116 362.524 90.3177 362.895 90.5724 363.145C91.0394 363.606 91.8087 363.5 92.4295 363.723C92.4985 363.723 92.5728 363.782 92.5834 363.851C92.594 363.92 92.5356 363.978 92.4773 364.02C92.3237 364.108 92.15 364.154 91.9732 364.154C91.7964 364.154 91.6227 364.108 91.4691 364.02C91.1613 363.846 90.8777 363.632 90.6255 363.383C90.1408 362.953 89.5864 362.608 88.986 362.364C88.1635 362.041 86.7309 361.95 86.2109 361.144C86.455 360.958 86.9856 361.016 87.304 361.011Z" fill="black"/>
<path id="Vector_65" opacity="0.1" d="M86.6037 362.847C86.7883 362.899 86.9663 362.972 87.1343 363.065L88.031 363.516C87.3942 363.559 86.7587 363.417 86.2004 363.107C86.0022 363.027 85.8091 362.935 85.6221 362.831C85.9479 362.782 86.2796 362.787 86.6037 362.847Z" fill="black"/>
<path id="Vector_66" opacity="0.1" d="M87.7869 364.376C87.9827 364.368 88.1787 364.384 88.3705 364.424C88.7084 364.542 89.0214 364.722 89.2938 364.955C89.9479 365.483 90.7662 365.767 91.6071 365.756C91.4417 365.834 91.2583 365.865 91.0766 365.846H89.1983C88.7097 365.878 88.2225 365.766 87.7975 365.522C87.4791 365.369 86.1633 364.992 86.1527 364.551C86.142 364.111 87.4685 364.376 87.7869 364.376Z" fill="black"/>
<path id="Vector_67" opacity="0.1" d="M130.526 366.605C131.101 366.669 131.679 366.685 132.256 366.653C132.863 366.637 133.455 366.453 133.964 366.122C134.469 365.735 134.362 365.337 133.72 365.31C133.123 365.338 132.538 365.482 131.996 365.735C131.716 365.847 131.446 365.984 131.189 366.143C131.057 366.202 130.622 366.611 130.526 366.605Z" fill="black"/>
<path id="Vector_68" opacity="0.1" d="M132.617 367.561C132.564 367.773 132.341 367.89 132.139 367.969C131.645 368.156 131.127 368.271 130.601 368.309C130.468 368.309 130.096 368.309 130.144 368.102C130.192 367.895 130.744 367.959 130.876 367.943C131.464 367.855 132.046 367.727 132.617 367.561Z" fill="black"/>
<path id="Vector_69" opacity="0.1" d="M127.375 367.216C128.108 367.131 128.85 367.278 129.497 367.635C129.516 367.648 129.531 367.666 129.539 367.688C129.543 367.695 129.545 367.704 129.545 367.712C129.545 367.72 129.543 367.728 129.539 367.736C129.472 367.863 129.368 367.967 129.242 368.035C129.115 368.103 128.971 368.132 128.828 368.118C128.545 368.085 128.266 368.015 128.001 367.911C127.559 367.768 127.096 367.698 126.632 367.704C126.425 367.723 126.217 367.723 126.011 367.704C125.395 367.598 125.597 367.348 126.069 367.295C126.503 367.246 126.938 367.219 127.375 367.216Z" fill="black"/>
<path id="Vector_70" opacity="0.1" d="M103.381 332.885C102.506 332.271 101.468 331.931 100.399 331.908C101.481 331.841 102.548 332.19 103.381 332.885Z" fill="black"/>
<path id="Vector_71" opacity="0.1" d="M102.564 329.36C103.351 329.365 104.122 329.585 104.792 329.997L103.986 329.774C103.501 329.62 103.001 329.515 102.495 329.461C102.203 329.435 101.911 329.461 101.619 329.429C101.328 329.397 100.956 329.344 100.627 329.334C101.269 329.366 101.917 329.328 102.564 329.36Z" fill="black"/>
<path id="Vector_72" opacity="0.1" d="M105.19 331.038C105.434 331.085 105.721 331.192 105.774 331.441C105.774 331.292 104.044 330.804 103.832 330.735C103.477 330.608 102.336 330.109 102.076 330.454C103.079 330.724 104.161 330.825 105.19 331.038Z" fill="black"/>
<path id="Vector_73" opacity="0.1" d="M107.62 323.278C108.768 322.892 109.801 322.228 110.629 321.346C110.62 321.739 110.514 322.124 110.321 322.467C110.127 322.809 109.852 323.099 109.52 323.309C108.847 323.717 108.104 323.995 107.329 324.127C106.554 324.259 105.799 324.486 105.079 324.801C104.734 324.976 103.657 325.995 103.317 325.942C102.888 325.878 103.572 325.199 103.731 325.077C104.867 324.191 106.305 323.798 107.62 323.278Z" fill="black"/>
<path id="Vector_74" opacity="0.1" d="M129.019 334.61C128.648 334.482 124.138 335.358 124.414 334.482C124.584 333.952 126.048 334.143 126.414 334.159C127.3 334.184 128.177 334.335 129.019 334.61Z" fill="black"/>
<path id="Vector_75" d="M124.159 230.152C124.159 232.45 123.364 234.678 121.909 236.457C120.454 238.236 118.429 239.456 116.177 239.911C113.925 240.367 111.585 240.029 109.553 238.954C107.522 237.88 105.925 236.136 105.033 234.018C104.14 231.9 104.008 229.539 104.658 227.334C105.308 225.13 106.7 223.218 108.599 221.924C110.497 220.629 112.785 220.031 115.074 220.232C117.362 220.432 119.511 221.419 121.156 223.024C122.11 223.949 122.868 225.057 123.384 226.282C123.9 227.507 124.163 228.823 124.159 230.152Z" fill="#FBBEBE"/>
<path id="Vector_76" d="M119.347 234.255C119.347 234.255 116.115 243.692 117.951 245.614C119.787 247.535 104.76 248.671 104.76 248.671C104.76 248.671 111.048 237.402 110.438 234.605C109.828 231.808 119.347 234.255 119.347 234.255Z" stroke="#27AE60" stroke-miterlimit="10"/>
<path id="Vector_77" opacity="0.1" d="M132.802 298.623C132.802 298.851 132.802 299.069 132.802 299.281C132.627 303.74 124.679 312.736 122.843 311.25C121.007 309.764 108.517 306.792 108.517 306.792C108.517 306.792 106.681 303.909 104.761 303.909C103.67 303.815 102.603 303.539 101.604 303.092L101.964 297.97C101.964 297.97 129.125 293.315 132.118 297.068C132.437 297.541 132.669 298.068 132.802 298.623Z" fill="black"/>
<path id="Vector_78" d="M132.797 298.469C132.707 300.703 130.675 304.074 128.43 306.696C126.186 309.318 123.756 311.176 122.838 310.411C122.166 309.973 121.438 309.628 120.673 309.387C116.54 307.864 108.517 305.953 108.517 305.953C108.517 305.953 106.681 303.071 104.761 303.071C102.84 303.071 99.1734 301.149 99.1734 301.149C99.1734 301.149 99.5236 300.619 99.1734 298.702C98.8232 296.786 93.2361 299.764 93.2361 299.764C93.2361 299.764 92.9707 286.834 94.9817 280.539C96.9927 274.244 96.0429 266.208 96.0429 266.208C96.0429 266.208 97.4808 258.289 99.0408 252.031C99.9799 248.278 100.967 245.131 101.72 244.632C103.731 243.321 114.21 244.632 114.21 244.632C114.21 244.632 118.577 244.717 120.238 245.163C120.754 245.364 121.194 245.723 121.496 246.187C121.596 246.325 121.702 246.468 121.803 246.622C122.971 248.374 124.159 251.399 125.3 254.165C126.961 258.183 133.513 275.13 133.513 275.13C133.513 275.13 133.338 276.266 131.853 281.42C130.367 286.574 132.972 294.016 132.797 298.469Z" fill="#65617D"/>
<path id="Vector_79" d="M125.284 303.623L128.43 306.691C128.43 306.691 131.311 316.638 127.555 315.767C123.798 314.897 120.657 309.398 120.657 309.398L125.284 303.623Z" fill="#FBBEBE"/>
<path id="Vector_80" opacity="0.1" d="M133.232 275.927C125.804 275.842 123.888 265.444 123.888 265.444C123.888 265.444 123.358 255.136 122.403 253.236C121.872 252.174 121.633 249.563 121.527 247.44C122.695 249.191 123.878 252.217 125.024 254.982C126.685 258.979 133.232 275.927 133.232 275.927Z" fill="black"/>
<path id="Vector_81" d="M133.498 275.141C126.069 275.056 124.159 264.653 124.159 264.653C124.159 264.653 123.629 254.345 122.673 252.445C122.143 251.383 121.904 248.772 121.798 246.649C122.965 248.4 124.154 251.426 125.295 254.191C126.945 258.193 133.498 275.141 133.498 275.141Z" fill="#65617D"/>
<path id="Vector_82" opacity="0.1" d="M120.201 249.494C120.201 249.494 118.015 243.554 114.433 249.494C110.852 255.433 110.767 262.949 110.767 262.949L110.157 279.371C110.157 279.371 111.292 281.558 111.25 282.779C111.207 284 113.372 287.498 113.372 287.498C113.372 287.498 113.903 294.398 115.903 295.534L117.824 301.213C117.824 301.213 117.914 304.971 119.225 306.457C120.535 307.943 119.845 310.236 119.845 310.236L127.608 307.519C127.608 307.519 126.732 307.832 127.608 305.486C128.483 303.14 127.077 300.077 127.077 300.077C127.077 300.077 122.1 289.244 121.49 287.673C120.88 286.102 120.005 284.265 120.355 282.429C120.705 280.592 120.424 261.112 120.885 258.145C121.347 255.178 120.201 249.494 120.201 249.494Z" fill="black"/>
<path id="Vector_83" d="M121.007 248.671C121.007 248.671 118.821 242.732 115.24 248.671C111.658 254.61 111.573 262.126 111.573 262.126L110.963 278.549C110.963 278.549 112.099 280.735 112.056 281.956C112.014 283.177 114.179 286.675 114.179 286.675C114.179 286.675 114.709 293.575 116.71 294.711L118.63 300.39C118.63 300.39 118.721 304.148 120.031 305.634C121.342 307.121 120.657 309.414 120.657 309.414L128.415 306.691C128.415 306.691 127.539 307.009 128.415 304.663C129.29 302.317 127.884 299.254 127.884 299.254C127.884 299.254 122.907 288.421 122.297 286.85C121.687 285.279 120.811 283.442 121.161 281.606C121.511 279.769 121.236 260.29 121.692 257.317C122.148 254.345 121.007 248.671 121.007 248.671Z" fill="#444053"/>
<path id="Vector_84" opacity="0.1" d="M121.156 300.045C121.486 300.085 121.807 300.18 122.106 300.327C122.344 300.454 122.551 300.64 122.785 300.772C123.059 300.927 123.367 301.011 123.682 301.017C123.331 301.017 122.981 301.054 122.62 301.059C122.403 301.07 122.186 301.043 121.978 300.979C121.788 300.883 121.609 300.764 121.448 300.624C121.235 300.465 121.001 300.336 120.753 300.242C120.567 300.162 120.365 300.135 120.286 299.944C120.578 299.954 120.869 299.988 121.156 300.045Z" fill="black"/>
<path id="Vector_85" opacity="0.1" d="M124.111 302.391C124.44 302.391 124.769 302.317 125.104 302.296C125.584 302.278 126.065 302.303 126.541 302.37C125.84 302.722 125.051 302.862 124.271 302.774C124.046 302.715 123.81 302.715 123.586 302.774C123.342 302.874 122.636 303.676 122.573 302.965C122.509 302.253 123.708 302.407 124.111 302.391Z" fill="black"/>
<path id="Vector_86" opacity="0.1" d="M120.095 219.669L118.853 218.746C118.989 218.792 119.12 218.851 119.246 218.921C119.51 219.068 119.75 219.256 119.957 219.478C120.095 219.595 120.233 219.722 120.365 219.844L120.095 219.669Z" fill="black"/>
<g id="hair">
<path id="Vector_87" opacity="0.1" d="M121.506 246.198C121.278 246.719 120.911 247.167 120.445 247.493C120.166 247.684 119.846 247.808 119.511 247.854C119.035 247.897 118.556 247.846 118.1 247.705C117.52 247.558 116.948 247.38 116.386 247.174C115.288 246.722 114.163 246.339 113.017 246.028C111.271 245.63 109.239 245.773 107.987 247.047C106.888 248.167 106.618 249.908 105.519 251.028C104.05 252.524 101.641 252.434 99.5554 252.142L99.0673 252.073C100.006 248.321 100.993 245.173 101.747 244.674C103.758 243.363 114.237 244.674 114.237 244.674C114.237 244.674 118.604 244.759 120.265 245.205C120.77 245.401 121.203 245.748 121.506 246.198Z" fill="black"/>
<path id="Vector_88" opacity="0.1" d="M104.241 230.152C104.24 228.193 104.818 226.278 105.901 224.645C106.984 223.013 108.524 221.737 110.328 220.976C112.133 220.215 114.121 220.003 116.046 220.367C117.97 220.732 119.744 221.656 121.145 223.024C121.177 224.759 120.8 226.537 121.289 228.209C121.74 229.765 122.88 231.017 123.91 232.312C123.376 234.705 121.979 236.817 119.986 238.243C117.993 239.669 115.544 240.31 113.108 240.042C110.672 239.775 108.421 238.618 106.784 236.793C105.148 234.968 104.242 232.603 104.241 230.152Z" fill="black"/>
<path id="Vector_89" d="M120.339 219.324C118.407 217.572 115.973 216.473 113.382 216.181C110.791 215.89 108.174 216.421 105.901 217.7C104.857 218.276 103.966 219.093 103.301 220.083C101.932 222.265 102.283 225.078 101.566 227.551C100.887 229.913 99.2636 231.866 97.9212 233.921C96.5788 235.975 95.4592 238.427 95.9633 240.821C96.3294 242.572 97.5551 244.143 97.5126 245.932C97.4637 246.928 97.0419 247.868 96.331 248.567C95.6201 249.265 94.6723 249.67 93.6764 249.701C95.3637 250.895 97.4702 251.293 99.513 251.585C101.556 251.877 104.002 251.967 105.477 250.465C106.575 249.35 106.846 247.604 107.944 246.489C109.196 245.21 111.228 245.067 112.974 245.47C114.72 245.874 116.327 246.718 118.057 247.169C118.514 247.306 118.993 247.355 119.469 247.312C120.96 247.11 121.824 245.454 121.941 243.958C122.037 242.71 121.856 241.272 122.742 240.391C123.071 240.108 123.427 239.857 123.804 239.642C124.484 239.173 125.022 238.526 125.359 237.771C125.697 237.017 125.822 236.184 125.719 235.364C125.31 232.403 122.106 230.555 121.267 227.684C120.779 226.017 121.156 224.239 121.124 222.503C121.092 220.768 120.44 218.788 118.805 218.204" fill="#444053"/>
<path id="Vector_90" opacity="0.1" d="M125.581 235.38C125.167 232.418 121.962 230.571 121.124 227.7C120.636 226.033 121.013 224.255 120.986 222.519C121 221.31 120.628 220.127 119.925 219.144L120.169 219.324C120.038 219.197 119.9 219.075 119.755 218.958C119.556 218.747 119.325 218.567 119.071 218.427C118.922 218.316 118.768 218.215 118.62 218.114L118.858 218.332L118.614 218.151C119.318 219.135 119.69 220.317 119.676 221.527C119.676 223.257 119.325 225.041 119.814 226.707C120.652 229.579 123.857 231.426 124.271 234.388C124.371 235.208 124.246 236.041 123.907 236.795C123.568 237.549 123.03 238.196 122.35 238.666C121.973 238.88 121.617 239.131 121.289 239.414C120.408 240.295 120.583 241.734 120.487 242.981C120.371 244.478 119.506 246.134 118.02 246.336C117.543 246.378 117.062 246.329 116.603 246.192C114.874 245.741 113.266 244.892 111.52 244.494C109.775 244.096 107.748 244.234 106.49 245.513C105.392 246.627 105.121 248.368 104.023 249.488C102.553 250.99 100.144 250.895 98.0645 250.608C96.6969 250.452 95.3513 250.143 94.0532 249.685C93.8777 249.713 93.7003 249.727 93.5226 249.727C95.2099 250.921 97.3163 251.32 99.3591 251.611C101.402 251.903 103.848 251.994 105.318 250.492C106.416 249.377 106.687 247.631 107.785 246.516C109.042 245.237 111.075 245.093 112.815 245.497C114.555 245.9 116.168 246.744 117.898 247.195C118.357 247.333 118.838 247.381 119.315 247.339C120.8 247.137 121.665 245.481 121.782 243.984C121.878 242.737 121.702 241.298 122.583 240.417C122.913 240.136 123.268 239.885 123.644 239.669C124.33 239.201 124.873 238.553 125.214 237.796C125.556 237.04 125.683 236.204 125.581 235.38Z" fill="black"/>
</g>
</g>
</g>
<defs>
<linearGradient id="paint0_linear" x1="113.213" y1="384.726" x2="113.213" y2="215.343" gradientUnits="userSpaceOnUse">
<stop stop-color="#808080" stop-opacity="0.25"/>
<stop offset="0.54" stop-color="#808080" stop-opacity="0.12"/>
<stop offset="1" stop-color="#808080" stop-opacity="0.1"/>
</linearGradient>
<clipPath id="clip0">
<rect width="607" height="386" fill="white"/>
</clipPath>
</defs>
</svg>
